<svg width="1898" height="1252" xmlns="http://www.w3.org/2000/svg" xmlns:xlink="http://www.w3.org/1999/xlink" overflow="hidden"><defs><clipPath id="clip0"><rect x="1897" y="618" width="1898" height="1252"/></clipPath><clipPath id="clip1"><rect x="1897" y="618" width="1898" height="1248"/></clipPath><clipPath id="clip2"><rect x="1897" y="618" width="1898" height="1248"/></clipPath><clipPath id="clip3"><rect x="1897" y="618" width="1898" height="1248"/></clipPath><clipPath id="clip4"><rect x="1897" y="618" width="1898" height="1248"/></clipPath><clipPath id="clip5"><rect x="1897" y="618" width="1898" height="1248"/></clipPath><clipPath id="clip6"><rect x="2157" y="669" width="1160" height="985"/></clipPath><clipPath id="clip7"><rect x="1897" y="618" width="1898" height="1248"/></clipPath><clipPath id="clip8"><rect x="2157" y="669" width="1160" height="985"/></clipPath><clipPath id="clip9"><rect x="1897" y="618" width="1898" height="1248"/></clipPath><clipPath id="clip10"><rect x="1897" y="618" width="1898" height="1248"/></clipPath><clipPath id="clip11"><rect x="1897" y="618" width="1898" height="1248"/></clipPath><clipPath id="clip12"><rect x="1897" y="618" width="1898" height="1248"/></clipPath><clipPath id="clip13"><rect x="1897" y="618" width="1898" height="1248"/></clipPath><clipPath id="clip14"><rect x="1897" y="618" width="1898" height="1248"/></clipPath><clipPath id="clip15"><rect x="1897" y="618" width="1898" height="1248"/></clipPath><clipPath id="clip16"><rect x="1897" y="618" width="1898" height="1248"/></clipPath><clipPath id="clip17"><rect x="1897" y="618" width="1898" height="1248"/></clipPath><clipPath id="clip18"><rect x="1897" y="618" width="1898" height="1248"/></clipPath><clipPath id="clip19"><rect x="1897" y="618" width="1898" height="1248"/></clipPath><clipPath id="clip20"><rect x="1897" y="618" width="1898" height="1248"/></clipPath><clipPath id="clip21"><rect x="1897" y="618" width="1898" height="1248"/></clipPath><clipPath id="clip22"><rect x="1897" y="618" width="1898" height="1248"/></clipPath><clipPath id="clip23"><rect x="1897" y="618" width="1898" height="1248"/></clipPath><clipPath id="clip24"><rect x="1897" y="618" width="1898" height="1248"/></clipPath><clipPath id="clip25"><rect x="1897" y="618" width="1898" height="1248"/></clipPath><clipPath id="clip26"><rect x="1897" y="618" width="1898" height="1248"/></clipPath><clipPath id="clip27"><rect x="1897" y="618" width="1898" height="1248"/></clipPath><clipPath id="clip28"><rect x="1897" y="618" width="1898" height="1248"/></clipPath><clipPath id="clip29"><rect x="1897" y="618" width="1898" height="1248"/></clipPath><clipPath id="clip30"><rect x="1897" y="618" width="1898" height="1248"/></clipPath><clipPath id="clip31"><rect x="1897" y="618" width="1898" height="1248"/></clipPath><clipPath id="clip32"><rect x="1897" y="618" width="1898" height="1248"/></clipPath></defs><g clip-path="url(#clip0)" transform="translate(-1897 -618)"><rect x="1898" y="619" width="1897" height="1247" fill="#FFFFFF" fill-opacity="1"/><g clip-path="url(#clip1)"><path d="M2157.5 1454.55 3313.5 1454.55M2157.5 1258.54 3313.5 1258.54M2157.5 1062.54 3313.5 1062.54M2157.5 865.529 3313.5 865.529M2157.5 669.5 3313.5 669.5" stroke="#D9D9D9" stroke-width="3.4375" stroke-linecap="butt" stroke-linejoin="round" stroke-miterlimit="10" stroke-opacity="1" fill="none" fill-rule="nonzero"/></g><g clip-path="url(#clip2)"><path d="M2302.58 669.5 2302.58 1651.5M2446.58 669.5 2446.58 1651.5M2591.59 669.5 2591.59 1651.5M2735.59 669.5 2735.59 1651.5M2880.59 669.5 2880.59 1651.5M3024.6 669.5 3024.6 1651.5M3169.6 669.5 3169.6 1651.5M3313.5 669.5 3313.5 1651.5" stroke="#D9D9D9" stroke-width="3.4375" stroke-linecap="butt" stroke-linejoin="round" stroke-miterlimit="10" stroke-opacity="1" fill="none" fill-rule="nonzero"/></g><g clip-path="url(#clip3)"><rect x="2157.5" y="669.5" width="1156" height="982" stroke="#000000" stroke-width="3.4375" stroke-linecap="butt" stroke-linejoin="round" stroke-miterlimit="10" stroke-opacity="1" fill="none"/></g><g clip-path="url(#clip4)"><path d="M0 0 0.000360892 982" stroke="#000000" stroke-width="3.4375" stroke-linecap="butt" stroke-linejoin="round" stroke-miterlimit="10" stroke-opacity="1" fill="none" fill-rule="evenodd" transform="matrix(1 0 0 -1 2157.5 1651.5)"/></g><g clip-path="url(#clip5)"><path d="M2157.5 1651.5 3313.5 1651.5" stroke="#000000" stroke-width="3.4375" stroke-linecap="butt" stroke-linejoin="round" stroke-miterlimit="10" stroke-opacity="1" fill="none" fill-rule="evenodd"/></g><g clip-path="url(#clip6)"><path d="M2215.5 1642.5C2234.76 1639.23 2254.03 1636.48 2273.29 1632.68 2292.55 1628.88 2311.82 1624.62 2331.08 1619.71 2350.34 1614.8 2369.6 1610.61 2388.87 1603.21 2408.13 1595.82 2427.39 1582.39 2446.66 1575.32 2465.92 1568.25 2485.18 1568.58 2504.45 1560.79 2523.71 1552.99 2542.97 1541.54 2562.24 1528.57 2581.5 1515.61 2600.76 1496.09 2620.03 1483 2639.29 1469.9 2658.55 1457.86 2677.82 1450 2697.08 1442.14 2716.34 1449.21 2735.61 1435.86 2754.87 1422.5 2774.13 1398.54 2793.39 1369.86 2812.66 1341.18 2831.92 1282.12 2851.18 1263.79 2870.45 1245.45 2889.71 1267.58 2908.97 1259.86 2928.24 1252.13 2947.5 1238.25 2966.76 1217.43 2986.03 1196.61 3005.29 1156.8 3024.55 1134.93 3043.82 1113.06 3063.08 1111.29 3082.34 1086.21 3101.6 1061.14 3120.87 1003.58 3140.13 984.464 3159.39 965.345 3178.66 984.398 3197.92 971.5 3217.18 958.601 3236.45 943.738 3255.71 907.071 3274.97 870.404 3294.24 803.357 3313.5 751.5" stroke="#00B0F0" stroke-width="6.875" stroke-linecap="round" stroke-linejoin="round" stroke-miterlimit="10" stroke-opacity="1" fill="none" fill-rule="nonzero"/></g><g clip-path="url(#clip7)"><path d="M2198 1624.25 2234 1624.25 2234 1660.25 2198 1660.25Z" stroke="#00B0F0" stroke-width="3.4375" stroke-linecap="butt" stroke-linejoin="round" stroke-miterlimit="10" stroke-opacity="1" fill="#00B0F0" fill-rule="nonzero" fill-opacity="1"/><path d="M2256 1614.25 2292 1614.25 2292 1650.25 2256 1650.25Z" stroke="#00B0F0" stroke-width="3.4375" stroke-linecap="butt" stroke-linejoin="round" stroke-miterlimit="10" stroke-opacity="1" fill="#00B0F0" fill-rule="nonzero" fill-opacity="1"/><path d="M2314 1601.25 2350 1601.25 2350 1637.25 2314 1637.25Z" stroke="#00B0F0" stroke-width="3.4375" stroke-linecap="butt" stroke-linejoin="round" stroke-miterlimit="10" stroke-opacity="1" fill="#00B0F0" fill-rule="nonzero" fill-opacity="1"/><path d="M2371 1585.25 2407 1585.25 2407 1621.25 2371 1621.25Z" stroke="#00B0F0" stroke-width="3.4375" stroke-linecap="butt" stroke-linejoin="round" stroke-miterlimit="10" stroke-opacity="1" fill="#00B0F0" fill-rule="nonzero" fill-opacity="1"/><path d="M2429 1557.25 2465 1557.25 2465 1593.25 2429 1593.25Z" stroke="#00B0F0" stroke-width="3.4375" stroke-linecap="butt" stroke-linejoin="round" stroke-miterlimit="10" stroke-opacity="1" fill="#00B0F0" fill-rule="nonzero" fill-opacity="1"/><path d="M2487 1543.25 2523 1543.25 2523 1579.25 2487 1579.25Z" stroke="#00B0F0" stroke-width="3.4375" stroke-linecap="butt" stroke-linejoin="round" stroke-miterlimit="10" stroke-opacity="1" fill="#00B0F0" fill-rule="nonzero" fill-opacity="1"/><path d="M2545 1510.25 2581 1510.25 2581 1546.25 2545 1546.25Z" stroke="#00B0F0" stroke-width="3.4375" stroke-linecap="butt" stroke-linejoin="round" stroke-miterlimit="10" stroke-opacity="1" fill="#00B0F0" fill-rule="nonzero" fill-opacity="1"/><path d="M2603 1465.25 2639 1465.25 2639 1501.25 2603 1501.25Z" stroke="#00B0F0" stroke-width="3.4375" stroke-linecap="butt" stroke-linejoin="round" stroke-miterlimit="10" stroke-opacity="1" fill="#00B0F0" fill-rule="nonzero" fill-opacity="1"/><path d="M2660 1432.25 2696 1432.25 2696 1468.25 2660 1468.25Z" stroke="#00B0F0" stroke-width="3.4375" stroke-linecap="butt" stroke-linejoin="round" stroke-miterlimit="10" stroke-opacity="1" fill="#00B0F0" fill-rule="nonzero" fill-opacity="1"/><path d="M2718 1418.25 2754 1418.25 2754 1454.25 2718 1454.25Z" stroke="#00B0F0" stroke-width="3.4375" stroke-linecap="butt" stroke-linejoin="round" stroke-miterlimit="10" stroke-opacity="1" fill="#00B0F0" fill-rule="nonzero" fill-opacity="1"/><path d="M2776 1352.25 2812 1352.25 2812 1388.25 2776 1388.25Z" stroke="#00B0F0" stroke-width="3.4375" stroke-linecap="butt" stroke-linejoin="round" stroke-miterlimit="10" stroke-opacity="1" fill="#00B0F0" fill-rule="nonzero" fill-opacity="1"/><path d="M2834 1246.25 2870 1246.25 2870 1282.25 2834 1282.25Z" stroke="#00B0F0" stroke-width="3.4375" stroke-linecap="butt" stroke-linejoin="round" stroke-miterlimit="10" stroke-opacity="1" fill="#00B0F0" fill-rule="nonzero" fill-opacity="1"/><path d="M2892 1242.25 2928 1242.25 2928 1278.25 2892 1278.25Z" stroke="#00B0F0" stroke-width="3.4375" stroke-linecap="butt" stroke-linejoin="round" stroke-miterlimit="10" stroke-opacity="1" fill="#00B0F0" fill-rule="nonzero" fill-opacity="1"/><path d="M2950 1199.25 2986 1199.25 2986 1235.25 2950 1235.25Z" stroke="#00B0F0" stroke-width="3.4375" stroke-linecap="butt" stroke-linejoin="round" stroke-miterlimit="10" stroke-opacity="1" fill="#00B0F0" fill-rule="nonzero" fill-opacity="1"/><path d="M3007 1117.25 3043 1117.25 3043 1153.25 3007 1153.25Z" stroke="#00B0F0" stroke-width="3.4375" stroke-linecap="butt" stroke-linejoin="round" stroke-miterlimit="10" stroke-opacity="1" fill="#00B0F0" fill-rule="nonzero" fill-opacity="1"/><path d="M3065 1068.25 3101 1068.25 3101 1104.25 3065 1104.25Z" stroke="#00B0F0" stroke-width="3.4375" stroke-linecap="butt" stroke-linejoin="round" stroke-miterlimit="10" stroke-opacity="1" fill="#00B0F0" fill-rule="nonzero" fill-opacity="1"/><path d="M3123 966.25 3159 966.25 3159 1002.25 3123 1002.25Z" stroke="#00B0F0" stroke-width="3.4375" stroke-linecap="butt" stroke-linejoin="round" stroke-miterlimit="10" stroke-opacity="1" fill="#00B0F0" fill-rule="nonzero" fill-opacity="1"/><path d="M3181 953.25 3217 953.25 3217 989.249 3181 989.249Z" stroke="#00B0F0" stroke-width="3.4375" stroke-linecap="butt" stroke-linejoin="round" stroke-miterlimit="10" stroke-opacity="1" fill="#00B0F0" fill-rule="nonzero" fill-opacity="1"/><path d="M3239 889.25 3275 889.25 3275 925.249 3239 925.249Z" stroke="#00B0F0" stroke-width="3.4375" stroke-linecap="butt" stroke-linejoin="round" stroke-miterlimit="10" stroke-opacity="1" fill="#00B0F0" fill-rule="nonzero" fill-opacity="1"/><path d="M3296 733.25 3332 733.25 3332 769.249 3296 769.249Z" stroke="#00B0F0" stroke-width="3.4375" stroke-linecap="butt" stroke-linejoin="round" stroke-miterlimit="10" stroke-opacity="1" fill="#00B0F0" fill-rule="nonzero" fill-opacity="1"/></g><g clip-path="url(#clip8)"><path d="M2215.5 1632.5C2234.76 1629.62 2254.03 1627.19 2273.29 1623.85 2292.55 1620.5 2311.82 1615.92 2331.08 1612.44 2350.34 1608.97 2369.6 1607.2 2388.87 1603 2408.13 1598.81 2427.39 1591.14 2446.66 1587.27 2465.92 1583.4 2485.18 1582.94 2504.45 1579.8 2523.71 1576.65 2542.97 1572.19 2562.24 1568.39 2581.5 1564.59 2600.76 1560.92 2620.03 1556.99 2639.29 1553.05 2658.55 1549.58 2677.82 1544.79 2697.08 1540.01 2716.34 1532.14 2735.61 1528.28 2754.87 1524.41 2774.13 1525.06 2793.39 1521.59 2812.66 1518.12 2831.92 1511.36 2851.18 1507.43 2870.45 1503.5 2889.71 1501.53 2908.97 1497.99 2928.24 1494.45 2947.5 1490.65 2966.76 1486.19 2986.03 1481.74 3005.29 1476.56 3024.55 1471.25 3043.82 1465.94 3063.08 1459.06 3082.34 1454.34 3101.6 1449.62 3120.87 1446.6 3140.13 1442.93 3159.39 1439.26 3178.66 1436.11 3197.92 1432.31 3217.18 1428.51 3236.45 1423.92 3255.71 1420.12 3274.97 1416.32 3294.24 1413.04 3313.5 1409.5" stroke="#FF0000" stroke-width="6.875" stroke-linecap="round" stroke-linejoin="round" stroke-miterlimit="10" stroke-opacity="1" fill="none" fill-rule="nonzero"/></g><g clip-path="url(#clip9)"><path d="M2234 1632.25C2234 1642.19 2225.94 1650.25 2216 1650.25 2206.06 1650.25 2198 1642.19 2198 1632.25 2198 1622.31 2206.06 1614.25 2216 1614.25 2225.94 1614.25 2234 1622.31 2234 1632.25Z" stroke="#FF0000" stroke-width="3.4375" stroke-linecap="butt" stroke-linejoin="round" stroke-miterlimit="10" stroke-opacity="1" fill="#FF0000" fill-rule="nonzero" fill-opacity="1"/><path d="M2292 1623.25C2292 1633.19 2283.94 1641.25 2274 1641.25 2264.06 1641.25 2256 1633.19 2256 1623.25 2256 1613.31 2264.06 1605.25 2274 1605.25 2283.94 1605.25 2292 1613.31 2292 1623.25Z" stroke="#FF0000" stroke-width="3.4375" stroke-linecap="butt" stroke-linejoin="round" stroke-miterlimit="10" stroke-opacity="1" fill="#FF0000" fill-rule="nonzero" fill-opacity="1"/><path d="M2350 1612.25C2350 1622.19 2341.94 1630.25 2332 1630.25 2322.06 1630.25 2314 1622.19 2314 1612.25 2314 1602.31 2322.06 1594.25 2332 1594.25 2341.94 1594.25 2350 1602.31 2350 1612.25Z" stroke="#FF0000" stroke-width="3.4375" stroke-linecap="butt" stroke-linejoin="round" stroke-miterlimit="10" stroke-opacity="1" fill="#FF0000" fill-rule="nonzero" fill-opacity="1"/><path d="M2407 1602.25C2407 1612.19 2398.94 1620.25 2389 1620.25 2379.06 1620.25 2371 1612.19 2371 1602.25 2371 1592.31 2379.06 1584.25 2389 1584.25 2398.94 1584.25 2407 1592.31 2407 1602.25Z" stroke="#FF0000" stroke-width="3.4375" stroke-linecap="butt" stroke-linejoin="round" stroke-miterlimit="10" stroke-opacity="1" fill="#FF0000" fill-rule="nonzero" fill-opacity="1"/><path d="M2465 1586.25C2465 1596.19 2456.94 1604.25 2447 1604.25 2437.06 1604.25 2429 1596.19 2429 1586.25 2429 1576.31 2437.06 1568.25 2447 1568.25 2456.94 1568.25 2465 1576.31 2465 1586.25Z" stroke="#FF0000" stroke-width="3.4375" stroke-linecap="butt" stroke-linejoin="round" stroke-miterlimit="10" stroke-opacity="1" fill="#FF0000" fill-rule="nonzero" fill-opacity="1"/><path d="M2523 1579.25C2523 1589.19 2514.94 1597.25 2505 1597.25 2495.06 1597.25 2487 1589.19 2487 1579.25 2487 1569.31 2495.06 1561.25 2505 1561.25 2514.94 1561.25 2523 1569.31 2523 1579.25Z" stroke="#FF0000" stroke-width="3.4375" stroke-linecap="butt" stroke-linejoin="round" stroke-miterlimit="10" stroke-opacity="1" fill="#FF0000" fill-rule="nonzero" fill-opacity="1"/><path d="M2581 1568.25C2581 1578.19 2572.94 1586.25 2563 1586.25 2553.06 1586.25 2545 1578.19 2545 1568.25 2545 1558.31 2553.06 1550.25 2563 1550.25 2572.94 1550.25 2581 1558.31 2581 1568.25Z" stroke="#FF0000" stroke-width="3.4375" stroke-linecap="butt" stroke-linejoin="round" stroke-miterlimit="10" stroke-opacity="1" fill="#FF0000" fill-rule="nonzero" fill-opacity="1"/><path d="M2639 1556.25C2639 1566.19 2630.94 1574.25 2621 1574.25 2611.06 1574.25 2603 1566.19 2603 1556.25 2603 1546.31 2611.06 1538.25 2621 1538.25 2630.94 1538.25 2639 1546.31 2639 1556.25Z" stroke="#FF0000" stroke-width="3.4375" stroke-linecap="butt" stroke-linejoin="round" stroke-miterlimit="10" stroke-opacity="1" fill="#FF0000" fill-rule="nonzero" fill-opacity="1"/><path d="M2696 1544.25C2696 1554.19 2687.94 1562.25 2678 1562.25 2668.06 1562.25 2660 1554.19 2660 1544.25 2660 1534.31 2668.06 1526.25 2678 1526.25 2687.94 1526.25 2696 1534.31 2696 1544.25Z" stroke="#FF0000" stroke-width="3.4375" stroke-linecap="butt" stroke-linejoin="round" stroke-miterlimit="10" stroke-opacity="1" fill="#FF0000" fill-rule="nonzero" fill-opacity="1"/><path d="M2754 1528.25C2754 1538.19 2745.94 1546.25 2736 1546.25 2726.06 1546.25 2718 1538.19 2718 1528.25 2718 1518.31 2726.06 1510.25 2736 1510.25 2745.94 1510.25 2754 1518.31 2754 1528.25Z" stroke="#FF0000" stroke-width="3.4375" stroke-linecap="butt" stroke-linejoin="round" stroke-miterlimit="10" stroke-opacity="1" fill="#FF0000" fill-rule="nonzero" fill-opacity="1"/><path d="M2812 1521.25C2812 1531.19 2803.94 1539.25 2794 1539.25 2784.06 1539.25 2776 1531.19 2776 1521.25 2776 1511.31 2784.06 1503.25 2794 1503.25 2803.94 1503.25 2812 1511.31 2812 1521.25Z" stroke="#FF0000" stroke-width="3.4375" stroke-linecap="butt" stroke-linejoin="round" stroke-miterlimit="10" stroke-opacity="1" fill="#FF0000" fill-rule="nonzero" fill-opacity="1"/><path d="M2870 1507.25C2870 1517.19 2861.94 1525.25 2852 1525.25 2842.06 1525.25 2834 1517.19 2834 1507.25 2834 1497.31 2842.06 1489.25 2852 1489.25 2861.94 1489.25 2870 1497.31 2870 1507.25Z" stroke="#FF0000" stroke-width="3.4375" stroke-linecap="butt" stroke-linejoin="round" stroke-miterlimit="10" stroke-opacity="1" fill="#FF0000" fill-rule="nonzero" fill-opacity="1"/><path d="M2928 1497.25C2928 1507.19 2919.94 1515.25 2910 1515.25 2900.06 1515.25 2892 1507.19 2892 1497.25 2892 1487.31 2900.06 1479.25 2910 1479.25 2919.94 1479.25 2928 1487.31 2928 1497.25Z" stroke="#FF0000" stroke-width="3.4375" stroke-linecap="butt" stroke-linejoin="round" stroke-miterlimit="10" stroke-opacity="1" fill="#FF0000" fill-rule="nonzero" fill-opacity="1"/><path d="M2986 1486.25C2986 1496.19 2977.94 1504.25 2968 1504.25 2958.06 1504.25 2950 1496.19 2950 1486.25 2950 1476.31 2958.06 1468.25 2968 1468.25 2977.94 1468.25 2986 1476.31 2986 1486.25Z" stroke="#FF0000" stroke-width="3.4375" stroke-linecap="butt" stroke-linejoin="round" stroke-miterlimit="10" stroke-opacity="1" fill="#FF0000" fill-rule="nonzero" fill-opacity="1"/><path d="M3043 1471.25C3043 1481.19 3034.94 1489.25 3025 1489.25 3015.06 1489.25 3007 1481.19 3007 1471.25 3007 1461.31 3015.06 1453.25 3025 1453.25 3034.94 1453.25 3043 1461.31 3043 1471.25Z" stroke="#FF0000" stroke-width="3.4375" stroke-linecap="butt" stroke-linejoin="round" stroke-miterlimit="10" stroke-opacity="1" fill="#FF0000" fill-rule="nonzero" fill-opacity="1"/><path d="M3101 1454.25C3101 1464.19 3092.94 1472.25 3083 1472.25 3073.06 1472.25 3065 1464.19 3065 1454.25 3065 1444.31 3073.06 1436.25 3083 1436.25 3092.94 1436.25 3101 1444.31 3101 1454.25Z" stroke="#FF0000" stroke-width="3.4375" stroke-linecap="butt" stroke-linejoin="round" stroke-miterlimit="10" stroke-opacity="1" fill="#FF0000" fill-rule="nonzero" fill-opacity="1"/><path d="M3159 1442.25C3159 1452.19 3150.94 1460.25 3141 1460.25 3131.06 1460.25 3123 1452.19 3123 1442.25 3123 1432.31 3131.06 1424.25 3141 1424.25 3150.94 1424.25 3159 1432.31 3159 1442.25Z" stroke="#FF0000" stroke-width="3.4375" stroke-linecap="butt" stroke-linejoin="round" stroke-miterlimit="10" stroke-opacity="1" fill="#FF0000" fill-rule="nonzero" fill-opacity="1"/><path d="M3217 1432.25C3217 1442.19 3208.94 1450.25 3199 1450.25 3189.06 1450.25 3181 1442.19 3181 1432.25 3181 1422.31 3189.06 1414.25 3199 1414.25 3208.94 1414.25 3217 1422.31 3217 1432.25Z" stroke="#FF0000" stroke-width="3.4375" stroke-linecap="butt" stroke-linejoin="round" stroke-miterlimit="10" stroke-opacity="1" fill="#FF0000" fill-rule="nonzero" fill-opacity="1"/><path d="M3275 1420.25C3275 1430.19 3266.94 1438.25 3257 1438.25 3247.06 1438.25 3239 1430.19 3239 1420.25 3239 1410.31 3247.06 1402.25 3257 1402.25 3266.94 1402.25 3275 1410.31 3275 1420.25Z" stroke="#FF0000" stroke-width="3.4375" stroke-linecap="butt" stroke-linejoin="round" stroke-miterlimit="10" stroke-opacity="1" fill="#FF0000" fill-rule="nonzero" fill-opacity="1"/><path d="M3332 1409.25C3332 1419.19 3323.94 1427.25 3314 1427.25 3304.06 1427.25 3296 1419.19 3296 1409.25 3296 1399.31 3304.06 1391.25 3314 1391.25 3323.94 1391.25 3332 1399.31 3332 1409.25Z" stroke="#FF0000" stroke-width="3.4375" stroke-linecap="butt" stroke-linejoin="round" stroke-miterlimit="10" stroke-opacity="1" fill="#FF0000" fill-rule="nonzero" fill-opacity="1"/></g><g clip-path="url(#clip10)"><text fill="#595959" fill-opacity="1" font-family="Calibri,Calibri_MSFontService,sans-serif" font-style="normal" font-variant="normal" font-weight="400" font-stretch="normal" font-size="41" text-anchor="start" direction="ltr" writing-mode="lr-tb" unicode-bidi="normal" text-decoration="none" transform="matrix(1 0 0 1 2098.39 1661)">0</text></g><g clip-path="url(#clip11)"><text fill="#595959" fill-opacity="1" font-family="Calibri,Calibri_MSFontService,sans-serif" font-style="normal" font-variant="normal" font-weight="400" font-stretch="normal" font-size="41" text-anchor="start" direction="ltr" writing-mode="lr-tb" unicode-bidi="normal" text-decoration="none" transform="matrix(1 0 0 1 2056.59 1465)">500</text></g><g clip-path="url(#clip12)"><text fill="#595959" fill-opacity="1" font-family="Calibri,Calibri_MSFontService,sans-serif" font-style="normal" font-variant="normal" font-weight="400" font-stretch="normal" font-size="41" text-anchor="start" direction="ltr" writing-mode="lr-tb" unicode-bidi="normal" text-decoration="none" transform="matrix(1 0 0 1 2035.69 1269)">1000</text></g><g clip-path="url(#clip13)"><text fill="#595959" fill-opacity="1" font-family="Calibri,Calibri_MSFontService,sans-serif" font-style="normal" font-variant="normal" font-weight="400" font-stretch="normal" font-size="41" text-anchor="start" direction="ltr" writing-mode="lr-tb" unicode-bidi="normal" text-decoration="none" transform="matrix(1 0 0 1 2035.69 1072)">1500</text></g><g clip-path="url(#clip14)"><text fill="#595959" fill-opacity="1" font-family="Calibri,Calibri_MSFontService,sans-serif" font-style="normal" font-variant="normal" font-weight="400" font-stretch="normal" font-size="41" text-anchor="start" direction="ltr" writing-mode="lr-tb" unicode-bidi="normal" text-decoration="none" transform="matrix(1 0 0 1 2035.69 876)">2000</text></g><g clip-path="url(#clip15)"><text fill="#595959" fill-opacity="1" font-family="Calibri,Calibri_MSFontService,sans-serif" font-style="normal" font-variant="normal" font-weight="400" font-stretch="normal" font-size="41" text-anchor="start" direction="ltr" writing-mode="lr-tb" unicode-bidi="normal" text-decoration="none" transform="matrix(1 0 0 1 2035.69 679)">2500</text></g><g clip-path="url(#clip16)"><text fill="#595959" fill-opacity="1" font-family="Calibri,Calibri_MSFontService,sans-serif" font-style="normal" font-variant="normal" font-weight="400" font-stretch="normal" font-size="41" text-anchor="start" direction="ltr" writing-mode="lr-tb" unicode-bidi="normal" text-decoration="none" transform="matrix(1 0 0 1 2147.1 1717)">0</text></g><g clip-path="url(#clip17)"><text fill="#595959" fill-opacity="1" font-family="Calibri,Calibri_MSFontService,sans-serif" font-style="normal" font-variant="normal" font-weight="400" font-stretch="normal" font-size="41" text-anchor="start" direction="ltr" writing-mode="lr-tb" unicode-bidi="normal" text-decoration="none" transform="matrix(1 0 0 1 2270.75 1717)">500</text></g><g clip-path="url(#clip18)"><text fill="#595959" fill-opacity="1" font-family="Calibri,Calibri_MSFontService,sans-serif" font-style="normal" font-variant="normal" font-weight="400" font-stretch="normal" font-size="41" text-anchor="start" direction="ltr" writing-mode="lr-tb" unicode-bidi="normal" text-decoration="none" transform="matrix(1 0 0 1 2404.84 1717)">1000</text></g><g clip-path="url(#clip19)"><text fill="#595959" fill-opacity="1" font-family="Calibri,Calibri_MSFontService,sans-serif" font-style="normal" font-variant="normal" font-weight="400" font-stretch="normal" font-size="41" text-anchor="start" direction="ltr" writing-mode="lr-tb" unicode-bidi="normal" text-decoration="none" transform="matrix(1 0 0 1 2549.39 1717)">1500</text></g><g clip-path="url(#clip20)"><text fill="#595959" fill-opacity="1" font-family="Calibri,Calibri_MSFontService,sans-serif" font-style="normal" font-variant="normal" font-weight="400" font-stretch="normal" font-size="41" text-anchor="start" direction="ltr" writing-mode="lr-tb" unicode-bidi="normal" text-decoration="none" transform="matrix(1 0 0 1 2693.93 1717)">2000</text></g><g clip-path="url(#clip21)"><text fill="#595959" fill-opacity="1" font-family="Calibri,Calibri_MSFontService,sans-serif" font-style="normal" font-variant="normal" font-weight="400" font-stretch="normal" font-size="41" text-anchor="start" direction="ltr" writing-mode="lr-tb" unicode-bidi="normal" text-decoration="none" transform="matrix(1 0 0 1 2838.48 1717)">2500</text></g><g clip-path="url(#clip22)"><text fill="#595959" fill-opacity="1" font-family="Calibri,Calibri_MSFontService,sans-serif" font-style="normal" font-variant="normal" font-weight="400" font-stretch="normal" font-size="41" text-anchor="start" direction="ltr" writing-mode="lr-tb" unicode-bidi="normal" text-decoration="none" transform="matrix(1 0 0 1 2983.02 1717)">3000</text></g><g clip-path="url(#clip23)"><text fill="#595959" fill-opacity="1" font-family="Calibri,Calibri_MSFontService,sans-serif" font-style="normal" font-variant="normal" font-weight="400" font-stretch="normal" font-size="41" text-anchor="start" direction="ltr" writing-mode="lr-tb" unicode-bidi="normal" text-decoration="none" transform="matrix(1 0 0 1 3127.57 1717)">3500</text></g><g clip-path="url(#clip24)"><text fill="#595959" fill-opacity="1" font-family="Calibri,Calibri_MSFontService,sans-serif" font-style="normal" font-variant="normal" font-weight="400" font-stretch="normal" font-size="41" text-anchor="start" direction="ltr" writing-mode="lr-tb" unicode-bidi="normal" text-decoration="none" transform="matrix(1 0 0 1 3272.11 1717)">4000</text></g><g clip-path="url(#clip25)"><text fill="#595959" fill-opacity="1" font-family="Calibri,Calibri_MSFontService,sans-serif" font-style="normal" font-variant="normal" font-weight="400" font-stretch="normal" font-size="55" text-anchor="start" direction="ltr" writing-mode="lr-tb" unicode-bidi="normal" text-decoration="none" transform="matrix(6.12323e-17 -1 1 6.12323e-17 2006.79 1271)">time (MS)</text></g><g clip-path="url(#clip26)"><text fill="#595959" fill-opacity="1" font-family="Calibri,Calibri_MSFontService,sans-serif" font-style="normal" font-variant="normal" font-weight="400" font-stretch="normal" font-size="55" text-anchor="start" direction="ltr" writing-mode="lr-tb" unicode-bidi="normal" text-decoration="none" transform="matrix(1 0 0 1 2595.01 1794)">Concurrency</text></g><g clip-path="url(#clip27)"><path d="M3430.5 1060.5 3518.5 1060.5" stroke="#00B0F0" stroke-width="6.875" stroke-linecap="round" stroke-linejoin="round" stroke-miterlimit="10" stroke-opacity="1" fill="none" fill-rule="evenodd"/></g><g clip-path="url(#clip28)"><path d="M3460.61 1046.53 3486.61 1046.53 3486.61 1072.54 3460.61 1072.54Z" stroke="#00B0F0" stroke-width="3.4375" stroke-linecap="butt" stroke-linejoin="round" stroke-miterlimit="10" stroke-opacity="1" fill="#00B0F0" fill-rule="nonzero" fill-opacity="1"/></g><g clip-path="url(#clip29)"><text fill="#595959" fill-opacity="1" font-family="Calibri,Calibri_MSFontService,sans-serif" font-style="normal" font-variant="normal" font-weight="400" font-stretch="normal" font-size="50" text-anchor="start" direction="ltr" writing-mode="lr-tb" unicode-bidi="normal" text-decoration="none" transform="matrix(1 0 0 1 3528.16 1074)">Threads</text></g><g clip-path="url(#clip30)"><path d="M3430.5 1240.5 3518.5 1240.5" stroke="#FF0000" stroke-width="6.875" stroke-linecap="round" stroke-linejoin="round" stroke-miterlimit="10" stroke-opacity="1" fill="none" fill-rule="evenodd"/></g><g clip-path="url(#clip31)"><path d="M3487 1239.5C3487 1246.41 3481.18 1252.02 3474 1252.02 3466.82 1252.02 3461 1246.41 3461 1239.5 3461 1232.59 3466.82 1226.98 3474 1226.98 3481.18 1226.98 3487 1232.59 3487 1239.5Z" stroke="#FF0000" stroke-width="3.4375" stroke-linecap="butt" stroke-linejoin="round" stroke-miterlimit="10" stroke-opacity="1" fill="#FF0000" fill-rule="nonzero" fill-opacity="1"/></g><g clip-path="url(#clip32)"><text fill="#595959" fill-opacity="1" font-family="Calibri,Calibri_MSFontService,sans-serif" font-style="normal" font-variant="normal" font-weight="400" font-stretch="normal" font-size="50" text-anchor="start" direction="ltr" writing-mode="lr-tb" unicode-bidi="normal" text-decoration="none" transform="matrix(1 0 0 1 3528.16 1254)">Coroutines</text></g></g></svg>