<svg version="1.1" xmlns="http://www.w3.org/2000/svg" viewBox="0 0 699.8487243652344 233.0919189453125" width="1399.6974487304688" height="466.183837890625">
  <!-- svg-source:excalidraw -->
  
  <defs>
    <style class="style-fonts">
      @font-face {
        font-family: "Virgil";
        src: url("https://excalidraw.com/Virgil.woff2");
      }
      @font-face {
        font-family: "Cascadia";
        src: url("https://excalidraw.com/Cascadia.woff2");
      }
    </style>
  </defs>
  <g stroke-linecap="round" transform="translate(167.26034545898438 78.93704223632812) rotate(0 52.270721435546875 39.26692199707031)"><path d="M0 0 L104.54 0 L104.54 78.53 L0 78.53" stroke="none" stroke-width="0" fill="#12b886"></path><path d="M0 0 C23.62 0, 47.24 0, 104.54 0 M0 0 C23.99 0, 47.97 0, 104.54 0 M104.54 0 C104.54 26.01, 104.54 52.02, 104.54 78.53 M104.54 0 C104.54 28.91, 104.54 57.81, 104.54 78.53 M104.54 78.53 C75.86 78.53, 47.17 78.53, 0 78.53 M104.54 78.53 C66.49 78.53, 28.43 78.53, 0 78.53 M0 78.53 C0 62.62, 0 46.71, 0 0 M0 78.53 C0 53.84, 0 29.16, 0 0" stroke="#000000" stroke-width="1" fill="none"></path></g><g transform="translate(187.07980346679688 84.41263181771808) rotate(0 32 35)"><text x="32" y="14.5" font-family="Helvetica, Segoe UI Emoji" font-size="15.228165811567163px" fill="#000000" text-anchor="middle" style="white-space: pre;" direction="ltr">No. 1</text><text x="32" y="32" font-family="Helvetica, Segoe UI Emoji" font-size="15.228165811567163px" fill="#000000" text-anchor="middle" style="white-space: pre;" direction="ltr">coroutine</text><text x="32" y="49.5" font-family="Helvetica, Segoe UI Emoji" font-size="15.228165811567163px" fill="#000000" text-anchor="middle" style="white-space: pre;" direction="ltr">or</text><text x="32" y="67" font-family="Helvetica, Segoe UI Emoji" font-size="15.228165811567163px" fill="#000000" text-anchor="middle" style="white-space: pre;" direction="ltr">thread</text></g><g stroke-linecap="round" transform="translate(336.2947998046875 78.93704223632812) rotate(0 52.270721435546875 39.26692199707031)"><path d="M0 0 L104.54 0 L104.54 78.53 L0 78.53" stroke="none" stroke-width="0" fill="#40c057"></path><path d="M0 0 C36.58 0, 73.16 0, 104.54 0 M0 0 C40.26 0, 80.52 0, 104.54 0 M104.54 0 C104.54 26.17, 104.54 52.33, 104.54 78.53 M104.54 0 C104.54 30.58, 104.54 61.15, 104.54 78.53 M104.54 78.53 C73.97 78.53, 43.4 78.53, 0 78.53 M104.54 78.53 C73.04 78.53, 41.53 78.53, 0 78.53 M0 78.53 C0 47.54, 0 16.55, 0 0 M0 78.53 C0 58.53, 0 38.53, 0 0" stroke="#000000" stroke-width="1" fill="none"></path></g><g transform="translate(356.1142578125 84.4126318177182) rotate(0 32 35)"><text x="32" y="14.5" font-family="Helvetica, Segoe UI Emoji" font-size="15.228165811567163px" fill="#000000" text-anchor="middle" style="white-space: pre;" direction="ltr">No. 2</text><text x="32" y="32" font-family="Helvetica, Segoe UI Emoji" font-size="15.228165811567163px" fill="#000000" text-anchor="middle" style="white-space: pre;" direction="ltr">coroutine</text><text x="32" y="49.5" font-family="Helvetica, Segoe UI Emoji" font-size="15.228165811567163px" fill="#000000" text-anchor="middle" style="white-space: pre;" direction="ltr">or</text><text x="32" y="67" font-family="Helvetica, Segoe UI Emoji" font-size="15.228165811567163px" fill="#000000" text-anchor="middle" style="white-space: pre;" direction="ltr">thread</text></g><g stroke-linecap="round" transform="translate(510.26300048828125 78.93704223632812) rotate(0 52.270721435546875 39.26692199707031)"><path d="M0 0 L104.54 0 L104.54 78.53 L0 78.53" stroke="none" stroke-width="0" fill="#82c91e"></path><path d="M0 0 C22.57 0, 45.15 0, 104.54 0 M0 0 C35.3 0, 70.61 0, 104.54 0 M104.54 0 C104.54 16.64, 104.54 33.28, 104.54 78.53 M104.54 0 C104.54 20.4, 104.54 40.8, 104.54 78.53 M104.54 78.53 C73.74 78.53, 42.95 78.53, 0 78.53 M104.54 78.53 C82.8 78.53, 61.06 78.53, 0 78.53 M0 78.53 C0 60.15, 0 41.76, 0 0 M0 78.53 C0 53.92, 0 29.3, 0 0" stroke="#000000" stroke-width="1" fill="none"></path></g><g transform="translate(530.0824584960938 84.4126318177182) rotate(0 32 35)"><text x="32" y="14.5" font-family="Helvetica, Segoe UI Emoji" font-size="15.228165811567163px" fill="#000000" text-anchor="middle" style="white-space: pre;" direction="ltr">No. 3</text><text x="32" y="32" font-family="Helvetica, Segoe UI Emoji" font-size="15.228165811567163px" fill="#000000" text-anchor="middle" style="white-space: pre;" direction="ltr">coroutine</text><text x="32" y="49.5" font-family="Helvetica, Segoe UI Emoji" font-size="15.228165811567163px" fill="#000000" text-anchor="middle" style="white-space: pre;" direction="ltr">or</text><text x="32" y="67" font-family="Helvetica, Segoe UI Emoji" font-size="15.228165811567163px" fill="#000000" text-anchor="middle" style="white-space: pre;" direction="ltr">thread</text></g><g stroke-linecap="round" transform="translate(249.54830932617188 193.84677124023438) rotate(0 46.1397705078125 14.5)"><path d="M0 0 L92.28 0 L92.28 29 L0 29" stroke="none" stroke-width="0" fill="#7950f2"></path><path d="M0 0 C24.82 0, 49.63 0, 92.28 0 M0 0 C24.04 0, 48.07 0, 92.28 0 M92.28 0 C92.28 8.98, 92.28 17.97, 92.28 29 M92.28 0 C92.28 7.64, 92.28 15.28, 92.28 29 M92.28 29 C65.7 29, 39.13 29, 0 29 M92.28 29 C67.33 29, 42.38 29, 0 29 M0 29 C0 22.44, 0 15.88, 0 0 M0 29 C0 17.67, 0 6.33, 0 0" stroke="#000000" stroke-width="1" fill="none"></path></g><g transform="translate(272.6880798339844 198.84677124023438) rotate(0 23 9.5)"><text x="23" y="15" font-family="Helvetica, Segoe UI Emoji" font-size="16px" fill="#000000" text-anchor="middle" style="white-space: pre;" direction="ltr">pipe 2</text></g><g stroke-linecap="round" transform="translate(97.2919921875 10.873291015625) rotate(0 46.1397705078125 14.5)"><path d="M0 0 L92.28 0 L92.28 29 L0 29" stroke="none" stroke-width="0" fill="#be4bdb"></path><path d="M0 0 C32.61 0, 65.22 0, 92.28 0 M0 0 C28.64 0, 57.27 0, 92.28 0 M92.28 0 C92.28 5.85, 92.28 11.69, 92.28 29 M92.28 0 C92.28 8.73, 92.28 17.47, 92.28 29 M92.28 29 C63.5 29, 34.72 29, 0 29 M92.28 29 C57.95 29, 23.62 29, 0 29 M0 29 C0 19.05, 0 9.11, 0 0 M0 29 C0 19.68, 0 10.35, 0 0" stroke="#000000" stroke-width="1" fill="none"></path></g><g transform="translate(120.4317626953125 15.873291015625) rotate(0 23 9.5)"><text x="23" y="15" font-family="Helvetica, Segoe UI Emoji" font-size="16px" fill="#000000" text-anchor="middle" style="white-space: pre;" direction="ltr">pipe 1</text></g><g stroke-linecap="round" transform="translate(424.8553161621094 10) rotate(0 46.1397705078125 14.5)"><path d="M0 0 L92.28 0 L92.28 29 L0 29" stroke="none" stroke-width="0" fill="#4c6ef5"></path><path d="M0 0 C33.6 0, 67.19 0, 92.28 0 M0 0 C22.56 0, 45.12 0, 92.28 0 M92.28 0 C92.28 8.02, 92.28 16.03, 92.28 29 M92.28 0 C92.28 8.56, 92.28 17.11, 92.28 29 M92.28 29 C65.48 29, 38.68 29, 0 29 M92.28 29 C61.81 29, 31.33 29, 0 29 M0 29 C0 19.74, 0 10.47, 0 0 M0 29 C0 20.03, 0 11.07, 0 0" stroke="#000000" stroke-width="1" fill="none"></path></g><g transform="translate(447.9950866699219 15) rotate(0 23 9.5)"><text x="23" y="15" font-family="Helvetica, Segoe UI Emoji" font-size="16px" fill="#000000" text-anchor="middle" style="white-space: pre;" direction="ltr">pipe 3</text></g><g stroke-linecap="round" transform="translate(597.5691833496094 194.0919189453125) rotate(0 46.1397705078125 14.5)"><path d="M0 0 L92.28 0 L92.28 29 L0 29" stroke="none" stroke-width="0" fill="#228be6"></path><path d="M0 0 C25.35 0, 50.69 0, 92.28 0 M0 0 C26.17 0, 52.35 0, 92.28 0 M92.28 0 C92.28 7.78, 92.28 15.57, 92.28 29 M92.28 0 C92.28 9.27, 92.28 18.53, 92.28 29 M92.28 29 C66.27 29, 40.27 29, 0 29 M92.28 29 C63.26 29, 34.25 29, 0 29 M0 29 C0 22.39, 0 15.79, 0 0 M0 29 C0 20.03, 0 11.07, 0 0" stroke="#000000" stroke-width="1" fill="none"></path></g><g transform="translate(631.7089538574219 199.0919189453125) rotate(0 12 9.5)"><text x="12" y="15" font-family="Helvetica, Segoe UI Emoji" font-size="16px" fill="#000000" text-anchor="middle" style="white-space: pre;" direction="ltr">. . .</text></g><g transform="translate(194.72293090820312 43.878631591796875) rotate(0 17 9.5)"><text x="17" y="15" font-family="Helvetica, Segoe UI Emoji" font-size="16px" fill="#000000" text-anchor="middle" style="white-space: pre;" direction="ltr">read</text></g><g stroke-linecap="round"><g transform="translate(250.70700073242188 159.23779296875) rotate(0 -0.237579345703125 14.899688720703125)"><path d="M0 0 C-0.08 4.97, -0.4 24.83, -0.48 29.8 M0 0 C-0.08 4.97, -0.4 24.83, -0.48 29.8" stroke="#000000" stroke-width="1" fill="none"></path></g><g transform="translate(250.70700073242188 159.23779296875) rotate(0 -0.237579345703125 14.899688720703125)"><path d="M-0.48 29.8 L-6.56 16.2 L6.04 16.4 L-0.48 29.8" stroke="none" stroke-width="0" fill="#000000" fill-rule="evenodd"></path><path d="M-0.48 29.8 C-2.19 25.97, -3.9 22.14, -6.56 16.2 M-0.48 29.8 C-2.8 24.61, -5.12 19.42, -6.56 16.2 M-6.56 16.2 C-2.07 16.27, 2.42 16.34, 6.04 16.4 M-6.56 16.2 C-3.1 16.25, 0.36 16.31, 6.04 16.4 M6.04 16.4 C3.69 21.24, 1.33 26.07, -0.48 29.8 M6.04 16.4 C3.9 20.8, 1.76 25.2, -0.48 29.8 M-0.48 29.8 C-0.48 29.8, -0.48 29.8, -0.48 29.8 M-0.48 29.8 C-0.48 29.8, -0.48 29.8, -0.48 29.8" stroke="#000000" stroke-width="1" fill="none"></path></g></g><mask></mask><g transform="translate(258.9438171386719 161.6585693359375) rotate(0 18 9.5)"><text x="18" y="15" font-family="Helvetica, Segoe UI Emoji" font-size="16px" fill="#000000" text-anchor="middle" style="white-space: pre;" direction="ltr">write</text></g><g stroke-linecap="round"><g transform="translate(340.13015747070324 187.9990234375) rotate(0 0.24908447265619316 -14.894725685323408)"><path d="M0 0 C0.08 -4.96, 0.42 -24.82, 0.5 -29.79 M0 0 C0.08 -4.96, 0.42 -24.82, 0.5 -29.79" stroke="#000000" stroke-width="1" fill="none"></path></g><g transform="translate(340.13015747070324 187.9990234375) rotate(0 0.24908447265619316 -14.894725685323408)"><path d="M0.5 -29.79 L6.57 -16.18 L-6.02 -16.4 L0.5 -29.79" stroke="none" stroke-width="0" fill="#000000" fill-rule="evenodd"></path><path d="M0.5 -29.79 C2 -26.42, 3.5 -23.06, 6.57 -16.18 M0.5 -29.79 C2.11 -26.17, 3.73 -22.54, 6.57 -16.18 M6.57 -16.18 C1.95 -16.26, -2.68 -16.34, -6.02 -16.4 M6.57 -16.18 C3.25 -16.24, -0.07 -16.3, -6.02 -16.4 M-6.02 -16.4 C-4.69 -19.14, -3.35 -21.88, 0.5 -29.79 M-6.02 -16.4 C-4.03 -20.49, -2.04 -24.59, 0.5 -29.79 M0.5 -29.79 C0.5 -29.79, 0.5 -29.79, 0.5 -29.79 M0.5 -29.79 C0.5 -29.79, 0.5 -29.79, 0.5 -29.79" stroke="#000000" stroke-width="1" fill="none"></path></g></g><mask></mask><g transform="translate(351.3177795410156 164.69696044921875) rotate(0 17 9.5)"><text x="17" y="15" font-family="Helvetica, Segoe UI Emoji" font-size="16px" fill="#000000" text-anchor="middle" style="white-space: pre;" direction="ltr">read</text></g><g stroke-linecap="round"><g transform="translate(427.7931373887328 76.01385728121352) rotate(0 -0.060524541526262965 -17.150040823223947)"><path d="M0 0 C-0.02 -5.72, -0.1 -28.58, -0.12 -34.3 M0 0 C-0.02 -5.72, -0.1 -28.58, -0.12 -34.3" stroke="#000000" stroke-width="1" fill="none"></path></g><g transform="translate(427.7931373887328 76.01385728121352) rotate(0 -0.060524541526262965 -17.150040823223947)"><path d="M-0.12 -34.3 L6.27 -20.73 L-6.41 -20.68 L-0.12 -34.3" stroke="none" stroke-width="0" fill="#000000" fill-rule="evenodd"></path><path d="M-0.12 -34.3 C1.21 -31.47, 2.54 -28.65, 6.27 -20.73 M-0.12 -34.3 C1.91 -29.99, 3.94 -25.68, 6.27 -20.73 M6.27 -20.73 C1.36 -20.71, -3.55 -20.69, -6.41 -20.68 M6.27 -20.73 C1.56 -20.71, -3.15 -20.69, -6.41 -20.68 M-6.41 -20.68 C-3.92 -26.08, -1.43 -31.47, -0.12 -34.3 M-6.41 -20.68 C-4.85 -24.06, -3.29 -27.44, -0.12 -34.3 M-0.12 -34.3 C-0.12 -34.3, -0.12 -34.3, -0.12 -34.3 M-0.12 -34.3 C-0.12 -34.3, -0.12 -34.3, -0.12 -34.3" stroke="#000000" stroke-width="1" fill="none"></path></g></g><mask></mask><g stroke-linecap="round"><g transform="translate(516.6946105957031 42.261749267578125) rotate(0 0.13970947265625 17.225753784179688)"><path d="M0 0 C0.05 5.74, 0.23 28.71, 0.28 34.45 M0 0 C0.05 5.74, 0.23 28.71, 0.28 34.45" stroke="#000000" stroke-width="1" fill="none"></path></g><g transform="translate(516.6946105957031 42.261749267578125) rotate(0 0.13970947265625 17.225753784179688)"><path d="M0.28 34.45 L-6.17 20.91 L6.51 20.81 L0.28 34.45" stroke="none" stroke-width="0" fill="#000000" fill-rule="evenodd"></path><path d="M0.28 34.45 C-1.63 30.45, -3.53 26.44, -6.17 20.91 M0.28 34.45 C-1.5 30.71, -3.28 26.97, -6.17 20.91 M-6.17 20.91 C-3.55 20.89, -0.92 20.87, 6.51 20.81 M-6.17 20.91 C-2.42 20.88, 1.33 20.85, 6.51 20.81 M6.51 20.81 C4.79 24.57, 3.07 28.33, 0.28 34.45 M6.51 20.81 C4.7 24.76, 2.9 28.71, 0.28 34.45 M0.28 34.45 C0.28 34.45, 0.28 34.45, 0.28 34.45 M0.28 34.45 C0.28 34.45, 0.28 34.45, 0.28 34.45" stroke="#000000" stroke-width="1" fill="none"></path></g></g><mask></mask><g stroke-linecap="round"><g transform="translate(597.9790954589844 158.61627197265625) rotate(0 0.4547119140625 17.295257568359375)"><path d="M0 0 C0.15 5.77, 0.76 28.83, 0.91 34.59 M0 0 C0.15 5.77, 0.76 28.83, 0.91 34.59" stroke="#000000" stroke-width="1" fill="none"></path></g><g transform="translate(597.9790954589844 158.61627197265625) rotate(0 0.4547119140625 17.295257568359375)"><path d="M0.91 34.59 L-5.78 21.17 L6.89 20.83 L0.91 34.59" stroke="none" stroke-width="0" fill="#000000" fill-rule="evenodd"></path><path d="M0.91 34.59 C-1.54 29.67, -3.99 24.76, -5.78 21.17 M0.91 34.59 C-1.03 30.7, -2.97 26.81, -5.78 21.17 M-5.78 21.17 C-2.86 21.09, 0.06 21.01, 6.89 20.83 M-5.78 21.17 C-1.13 21.04, 3.52 20.92, 6.89 20.83 M6.89 20.83 C5.66 23.65, 4.44 26.47, 0.91 34.59 M6.89 20.83 C5.47 24.11, 4.04 27.38, 0.91 34.59 M0.91 34.59 C0.91 34.59, 0.91 34.59, 0.91 34.59 M0.91 34.59 C0.91 34.59, 0.91 34.59, 0.91 34.59" stroke="#000000" stroke-width="1" fill="none"></path></g></g><mask></mask><g transform="translate(520.7017517089844 42.6995849609375) rotate(0 17 9.5)"><text x="17" y="15" font-family="Helvetica, Segoe UI Emoji" font-size="16px" fill="#000000" text-anchor="middle" style="white-space: pre;" direction="ltr">read</text></g><g stroke-linecap="round"><g transform="translate(189.571533203125 41.3994140625) rotate(0 0.3946685791015625 18.770843505859375)"><path d="M0 0 C0.13 6.26, 0.66 31.28, 0.79 37.54 M0 0 C0.13 6.26, 0.66 31.28, 0.79 37.54" stroke="#000000" stroke-width="1" fill="none"></path></g><g transform="translate(189.571533203125 41.3994140625) rotate(0 0.3946685791015625 18.770843505859375)"><path d="M0.79 37.54 L-5.83 24.08 L6.84 23.82 L0.79 37.54" stroke="none" stroke-width="0" fill="#000000" fill-rule="evenodd"></path><path d="M0.79 37.54 C-1.37 33.14, -3.54 28.75, -5.83 24.08 M0.79 37.54 C-1.26 33.38, -3.3 29.22, -5.83 24.08 M-5.83 24.08 C-2.58 24.01, 0.68 23.95, 6.84 23.82 M-5.83 24.08 C-1.5 23.99, 2.84 23.9, 6.84 23.82 M6.84 23.82 C4.6 28.91, 2.35 34, 0.79 37.54 M6.84 23.82 C4.87 28.29, 2.9 32.76, 0.79 37.54 M0.79 37.54 C0.79 37.54, 0.79 37.54, 0.79 37.54 M0.79 37.54 C0.79 37.54, 0.79 37.54, 0.79 37.54" stroke="#000000" stroke-width="1" fill="none"></path></g></g><mask></mask><g transform="translate(390.4302062988281 54.4981689453125) rotate(0 18 9.5)"><text x="18" y="15" font-family="Helvetica, Segoe UI Emoji" font-size="16px" fill="#000000" text-anchor="middle" style="white-space: pre;" direction="ltr">write</text></g><g transform="translate(602.0354309082031 157.42376708984375) rotate(0 18 9.5)"><text x="18" y="15" font-family="Helvetica, Segoe UI Emoji" font-size="16px" fill="#000000" text-anchor="middle" style="white-space: pre;" direction="ltr">write</text></g><g stroke-linecap="round" transform="translate(10 80.15016174316406) rotate(0 52.270721435546875 39.26692199707031)"><path d="M0 0 L104.54 0 L104.54 78.53 L0 78.53" stroke="none" stroke-width="0" fill="#fd7e14"></path><path d="M0 0 C29.45 0, 58.91 0, 104.54 0 M0 0 C25.71 0, 51.41 0, 104.54 0 M104.54 0 C104.54 25.51, 104.54 51.03, 104.54 78.53 M104.54 0 C104.54 22.55, 104.54 45.1, 104.54 78.53 M104.54 78.53 C67.12 78.53, 29.7 78.53, 0 78.53 M104.54 78.53 C77.12 78.53, 49.71 78.53, 0 78.53 M0 78.53 C0 61.31, 0 44.09, 0 0 M0 78.53 C0 62.41, 0 46.28, 0 0" stroke="#000000" stroke-width="1" fill="none"></path></g><g transform="translate(24.21331787109375 103.02833921517913) rotate(0 41 9)"><text x="41" y="14" font-family="Helvetica, Segoe UI Emoji" font-size="15.228165811567163px" fill="#000000" text-anchor="middle" style="white-space: pre;" direction="ltr">main thread</text></g><g stroke-linecap="round"><g transform="translate(97.22851665889505 79.15016174316418) rotate(0 0.4161353697814434 -18.120887756347713)"><path d="M0 0 C0.14 -6.04, 0.69 -30.2, 0.83 -36.24 M0 0 C0.14 -6.04, 0.69 -30.2, 0.83 -36.24" stroke="#000000" stroke-width="1" fill="none"></path></g><g transform="translate(97.22851665889505 79.15016174316418) rotate(0 0.4161353697814434 -18.120887756347713)"><path d="M0.83 -36.24 L6.86 -22.51 L-5.82 -22.8 L0.83 -36.24" stroke="none" stroke-width="0" fill="#000000" fill-rule="evenodd"></path><path d="M0.83 -36.24 C2.07 -33.43, 3.3 -30.61, 6.86 -22.51 M0.83 -36.24 C2.58 -32.27, 4.32 -28.29, 6.86 -22.51 M6.86 -22.51 C2.89 -22.6, -1.07 -22.69, -5.82 -22.8 M6.86 -22.51 C2.82 -22.6, -1.21 -22.69, -5.82 -22.8 M-5.82 -22.8 C-4.13 -26.2, -2.45 -29.6, 0.83 -36.24 M-5.82 -22.8 C-3.21 -28.07, -0.6 -33.35, 0.83 -36.24 M0.83 -36.24 C0.83 -36.24, 0.83 -36.24, 0.83 -36.24 M0.83 -36.24 C0.83 -36.24, 0.83 -36.24, 0.83 -36.24" stroke="#000000" stroke-width="1" fill="none"></path></g></g><mask></mask><g transform="translate(54.169464111328125 58.24468994140625) rotate(0 18 9.5)"><text x="18" y="15" font-family="Helvetica, Segoe UI Emoji" font-size="16px" fill="#000000" text-anchor="middle" style="white-space: pre;" direction="ltr">write</text></g></svg>