<?xml version="1.0" encoding="utf-8"?>
<!-- Generator: Adobe Illustrator 26.2.1, SVG Export Plug-In . SVG Version: 6.00 Build 0)  -->
<svg version="1.1" id="图层_1" xmlns="http://www.w3.org/2000/svg" xmlns:xlink="http://www.w3.org/1999/xlink" x="0px" y="0px"
	 viewBox="0 0 1741.8 1427.4" style="enable-background:new 0 0 1741.8 1427.4;" xml:space="preserve">
<style type="text/css">
	.st0{fill:none;stroke:#000000;stroke-width:2;stroke-linecap:round;stroke-miterlimit:8;}
	.st1{fill:#FAB005;}
	.st2{font-family:'Helvetica';}
	.st3{font-size:32px;}
	.st4{fill:#FA5252;}
	.st5{fill:#15AABF;}
	.st6{fill-rule:evenodd;clip-rule:evenodd;fill:#FA5252;}
	.st7{fill-rule:evenodd;clip-rule:evenodd;fill:#FAB005;}
	.st8{fill-rule:evenodd;clip-rule:evenodd;fill:#15AABF;}
	.st9{fill:none;stroke:#FA5252;stroke-width:3;stroke-linecap:round;stroke-miterlimit:8;stroke-dasharray:16,18;}
	.st10{fill:none;stroke:#FA5252;stroke-width:3;stroke-linecap:round;stroke-miterlimit:8;}
	.st11{fill:#5F3DC4;}
	.st12{font-size:40px;}
	.st13{fill-rule:evenodd;clip-rule:evenodd;}
	.st14{font-size:56px;}
	.st15{font-family:'ArialMT';}
	.st16{fill:#CED4DA;}
	.st17{font-size:26.1757px;}
	.st18{font-size:32.7196px;}
	.st19{fill:none;stroke:#000000;stroke-width:3;stroke-linecap:round;stroke-miterlimit:8;stroke-dasharray:16,18;}
	.st20{fill:none;stroke:#000000;stroke-width:3;stroke-linecap:round;stroke-miterlimit:8;}
	.st21{font-size:32.2034px;}
</style>
<g transform="translate(450.2407531738281 10) rotate(0 3 9.5)">
</g>
<g transform="translate(46.359649658203125 116.12286376953125) rotate(0 79.5 165)">
	<path class="st0" d="M46.4,116.1c92.8,0,185.6,0,318,0 M46.4,116.1c100.3,0,200.6,0,318,0 M364.4,116.1c0,144,0,288,0,660
		 M364.4,116.1c0,184.7,0,369.4,0,660 M364.4,776.1c-95.4,0-190.8,0-318,0 M364.4,776.1c-103.2,0-206.5,0-318,0 M46.4,776.1
		c0-200.2,0-400.4,0-660 M46.4,776.1c0-204,0-407.9,0-660"/>
</g>
<g transform="translate(52.477264404296875 124.12286376953125) rotate(0 73.5 36)">
	<path class="st1" d="M52.5,124.1h294v144h-294"/>
	<path class="st0" d="M52.5,124.1c78.5,0,157.1,0,294,0 M52.5,124.1c108.2,0,216.5,0,294,0 M346.5,124.1c0,48.8,0,97.6,0,144
		 M346.5,124.1c0,41.8,0,83.7,0,144 M346.5,268.1c-74.8,0-149.6,0-294,0 M346.5,268.1c-77.2,0-154.3,0-294,0 M52.5,268.1
		c0-51.5,0-103,0-144 M52.5,268.1c0-46.5,0-93.1,0-144"/>
</g>
<g transform="translate(67.97726440429688 131.62286376953125) rotate(0 58 28.5)">
	<text transform="matrix(1 0 0 1 79.0164 161.6226)" class="st2 st3">coroutine_id: 1</text>
	<text transform="matrix(1 0 0 1 139.5086 199.6226)" class="st2 st3">prio: 4</text>
	<text transform="matrix(1 0 0 1 70.157 237.6226)" class="st2 st3">fn async_main()</text>
</g>
<g transform="translate(52.359649658203125 218.12286376953125) rotate(0 73.5 36)">
	<path class="st4" d="M52.4,218.1h294v144h-294"/>
	<path class="st0" d="M52.4,218.1c73,0,146,0,294,0 M52.4,218.1c64.9,0,129.8,0,294,0 M346.4,218.1c0,54.4,0,108.9,0,144
		 M346.4,218.1c0,45.1,0,90.1,0,144 M346.4,362.1c-61,0-122,0-294,0 M346.4,362.1c-96.1,0-192.2,0-294,0 M52.4,362.1
		c0-54.4,0-108.8,0-144 M52.4,362.1c0-52.8,0-105.7,0-144"/>
</g>
<g transform="translate(67.85964965820312 225.62286376953125) rotate(0 58 28.5)">
	<text transform="matrix(1 0 0 1 78.8987 255.6226)" class="st2 st3">coroutine_id: 2</text>
	<text transform="matrix(1 0 0 1 139.3908 293.6226)" class="st2 st3">prio: 1</text>
	<text transform="matrix(1 0 0 1 70.0393 331.6226)" class="st2 st3">fn async_main()</text>
</g>
<g transform="translate(52.359649658203125 311.0047607421875) rotate(0 73.5 36)">
	<path class="st5" d="M52.4,311h294v144h-294"/>
	<path class="st0" d="M52.4,311c116.2,0,232.5,0,294,0 M52.4,311c93.4,0,186.7,0,294,0 M346.4,311c0,43.9,0,87.9,0,144 M346.4,311
		c0,43.7,0,87.4,0,144 M346.4,455c-111.4,0-222.8,0-294,0 M346.4,455c-64.2,0-128.4,0-294,0 M52.4,455c0-40.5,0-80.9,0-144
		 M52.4,455c0-45.4,0-90.9,0-144"/>
</g>
<g transform="translate(67.85964965820312 318.5047607421875) rotate(0 58 28.5)">
	<text transform="matrix(1 0 0 1 78.8987 348.5044)" class="st2 st3">coroutine_id: 3</text>
	<text transform="matrix(1 0 0 1 139.3908 386.5044)" class="st2 st3">prio: 3</text>
	<text transform="matrix(1 0 0 1 70.0393 424.5044)" class="st2 st3">fn async_main()</text>
</g>
<g transform="translate(113.85964965820312 398.12286376953125) rotate(0 12 9.5)">
	<text transform="matrix(1 0 0 1 115.633 428.1226)" class="st2 st3">. . .</text>
</g>
<g transform="translate(576.4520568847656 218.54373168945312) rotate(0 29.5 21.5)">
	<path class="st6" d="M636.5,218.5l58,44l-58,42l-60-42"/>
	<path class="st0" d="M636.5,218.5c11.7,8.9,23.4,17.8,58,44 M636.5,218.5c21.9,16.7,43.9,33.3,58,44 M694.5,262.5
		c-21.1,15.3-42.3,30.6-58,42 M694.5,262.5c-13.5,9.7-26.9,19.5-58,42 M636.5,304.5c-23.1-16.2-46.2-32.3-60-42 M636.5,304.5
		c-20.9-14.7-41.9-29.3-60-42 M576.5,262.5c15.7-11.5,31.5-23.1,60-44 M576.5,262.5c22.3-16.4,44.6-32.7,60-44"/>
</g>
<g transform="translate(582.4520568847656 231.04373168945312) rotate(0 23.5 9.5)">
	<text transform="matrix(1 0 0 1 584.1007 261.0435)" class="st2 st3">CID_2</text>
</g>
<g transform="translate(259.6263122558594 198.81549072265625) rotate(0 94.5 27)">
	<path class="st0" d="M259.6,198.8c101.5,0,203,0,378,0 M259.6,198.8c92.1,0,184.2,0,378,0 M637.6,198.8c0,22.4,0,44.8,0,108
		 M637.6,198.8c0,39.7,0,79.3,0,108 M637.6,306.8c-120.7,0-241.4,0-378,0 M637.6,306.8c-101.6,0-203.1,0-378,0 M259.6,306.8
		c0-35.6,0-71.3,0-108 M259.6,306.8c0-28.2,0-56.4,0-108"/>
</g>
<g transform="translate(362.1263122558594 297.31549072265625) rotate(0 37.5 25.5)">
	<path class="st7" d="M438.1,297.3l74,52l-74,50l-76-50"/>
	<path class="st0" d="M438.1,297.3c16.9,11.9,33.8,23.7,74,52 M438.1,297.3c19.2,13.5,38.3,26.9,74,52 M512.1,349.3
		c-15.3,10.3-30.5,20.6-74,50 M512.1,349.3c-15.6,10.5-31.1,21-74,50 M438.1,399.3c-15.9-10.4-31.7-20.9-76-50 M438.1,399.3
		c-20.9-13.7-41.8-27.5-76-50 M362.1,349.3c29.8-20.4,59.7-40.8,76-52 M362.1,349.3c20.4-14,40.8-27.9,76-52"/>
</g>
<g transform="translate(376.1263122558594 313.81549072265625) rotate(0 23.5 9.5)">
	<text transform="matrix(1 0 0 1 377.7741 343.8157)" class="st2 st3">CID_1</text>
</g>
<g transform="translate(259.6263122558594 295.81549072265625) rotate(0 94.5 27)">
	<path class="st0" d="M259.6,295.8c88.6,0,177.2,0,378,0 M259.6,295.8c83.9,0,167.8,0,378,0 M637.6,295.8c0,32.4,0,64.8,0,108
		 M637.6,295.8c0,41.1,0,82.3,0,108 M637.6,403.8c-131.7,0-263.3,0-378,0 M637.6,403.8c-98.5,0-196.9,0-378,0 M259.6,403.8
		c0-25.2,0-50.4,0-108 M259.6,403.8c0-33.5,0-67,0-108"/>
</g>
<g transform="translate(362.1263122558594 396.31549072265625) rotate(0 37.5 25.5)">
	<path class="st8" d="M438.1,396.3l74,52l-74,50l-76-50"/>
	<path class="st0" d="M438.1,396.3c26.8,18.8,53.5,37.6,74,52 M438.1,396.3c22.6,15.8,45.1,31.7,74,52 M512.1,448.3
		c-22.2,15-44.4,30-74,50 M512.1,448.3c-15.7,10.6-31.3,21.2-74,50 M438.1,498.3c-18.7-12.3-37.4-24.6-76-50 M438.1,498.3
		c-17.4-11.5-34.8-22.9-76-50 M362.1,448.3c16.5-11.3,32.9-22.5,76-52 M362.1,448.3c21.6-14.8,43.3-29.6,76-52"/>
</g>
<g transform="translate(376.1263122558594 412.81549072265625) rotate(0 23.5 9.5)">
	<text transform="matrix(1 0 0 1 377.7741 442.8157)" class="st2 st3">CID_3</text>
</g>
<g transform="translate(259.6263122558594 394.81549072265625) rotate(0 94.5 27)">
	<path class="st0" d="M259.6,394.8c81.4,0,162.9,0,378,0 M259.6,394.8c77.5,0,155,0,378,0 M637.6,394.8c0,38.6,0,77.2,0,108
		 M637.6,394.8c0,23.2,0,46.4,0,108 M637.6,502.8c-77.8,0-155.6,0-378,0 M637.6,502.8c-118.6,0-237.3,0-378,0 M259.6,502.8
		c0-40.7,0-81.4,0-108 M259.6,502.8c0-33.4,0-66.7,0-108"/>
</g>
<g>
	<g transform="translate(582.8549113302663 233.47694521299115) rotate(0 -194.3070790782191 10.761527393504423)">
		<path class="st9" d="M582.9,233.5c-265.5,14.7-530.9,29.4-777.2,43"/>
	</g>
	<g transform="translate(582.8549113302663 233.47694521299115) rotate(0 -194.3070790782191 10.761527393504423)">
		<path class="st10" d="M-139.2,252.9c-18.8,8.1-37.7,16.1-55.2,23.6"/>
	</g>
	<g transform="translate(582.8549113302663 233.47694521299115) rotate(0 -194.3070790782191 10.761527393504423)">
		<path class="st10" d="M-136.9,293.9c-19.6-5.9-39.2-11.9-57.4-17.4"/>
	</g>
</g>
<g transform="translate(214.37631225585938 258.81549072265625) rotate(0 31.5 9.5)">
	<text transform="matrix(1 0 0 1 216.0006 288.8157)" class="st4 st2 st3">mapping</text>
</g>
<g transform="translate(329.3763122558594 179.9385986328125) rotate(0 60.5 9.5)">
	<text transform="matrix(1 0 0 1 331.1803 209.9387)" class="st11 st2 st3">priority_queue_1</text>
</g>
<g transform="translate(327.3763122558594 277.81549072265625) rotate(0 60.5 9.5)">
	<text transform="matrix(1 0 0 1 329.1803 307.8157)" class="st11 st2 st3">priority_queue_2</text>
</g>
<g transform="translate(326.3763122558594 374.81549072265625) rotate(0 60.5 9.5)">
	<text transform="matrix(1 0 0 1 328.1803 404.8157)" class="st11 st2 st3">priority_queue_3</text>
</g>
<g transform="translate(483.2407531738281 229) rotate(0 49 37)">
	<path class="st0" d="M483.2,229c45.2,0,90.4,0,196,0 M483.2,229c59.9,0,119.7,0,196,0 M679.2,229c0,32,0,64,0,148 M679.2,229
		c0,42.9,0,85.8,0,148 M679.2,377c-48.9,0-97.9,0-196,0 M679.2,377c-64.6,0-129.2,0-196,0 M483.2,377c0-50.8,0-101.5,0-148
		 M483.2,377c0-38,0-76,0-148"/>
</g>
<g transform="translate(488.7407531738281 250.5) rotate(0 44.5 11.5)">
	<text transform="matrix(1 0 0 1 491.0219 288.5004)" class="st2 st12">scheduler</text>
</g>
<g>
	<g transform="translate(453.1486776774494 219.92620849609375) rotate(0 13.624660533265 20.21185302734375)">
		<path class="st0" d="M453.1,219.9c18,26.7,36,53.4,54.5,80.8 M453.1,219.9c14,20.7,28,41.5,54.5,80.8"/>
	</g>
	<g transform="translate(453.1486776774494 219.92620849609375) rotate(0 13.624660533265 20.21185302734375)">
		<path class="st13" d="M507.6,300.8l-25.7-15.5l21-14.2L507.6,300.8"/>
		<path class="st0" d="M507.6,300.8c-8.5-5.1-17-10.2-25.7-15.5 M507.6,300.8c-6.6-4-13.2-7.9-25.7-15.5 M481.9,285.3
			c5.8-3.9,11.6-7.8,21-14.2 M481.9,285.3c7.5-5.1,15.1-10.1,21-14.2 M503,271.1c1.1,7.1,2.3,14.3,4.7,29.6 M503,271.1
			c1.7,10.9,3.4,21.8,4.7,29.6 M507.6,300.8L507.6,300.8 M507.6,300.8L507.6,300.8"/>
	</g>
</g>
<g>
	<g transform="translate(450.8763122558594 347.7025748496393) rotate(0 14.062817768210948 -21.60797077442902)">
		<path class="st0" d="M450.9,347.7c12.5-19.3,25.1-38.6,56.3-86.4 M450.9,347.7c17.4-26.7,34.8-53.4,56.3-86.4"/>
	</g>
	<g transform="translate(450.8763122558594 347.7025748496393) rotate(0 14.062817768210948 -21.60797077442902)">
		<path class="st13" d="M507.1,261.3l-4.2,29.7l-21.2-13.8L507.1,261.3"/>
		<path class="st0" d="M507.1,261.3c-0.9,6.6-1.9,13.3-4.2,29.7 M507.1,261.3c-1.3,9.2-2.6,18.4-4.2,29.7 M502.9,291
			c-5.9-3.8-11.7-7.6-21.2-13.8 M502.9,291c-5.2-3.4-10.3-6.7-21.2-13.8 M481.7,277.1c7.1-4.5,14.3-8.9,25.5-15.9 M481.7,277.1
			c5.1-3.2,10.2-6.4,25.5-15.9 M507.1,261.3L507.1,261.3 M507.1,261.3L507.1,261.3"/>
	</g>
</g>
<g>
	<g transform="translate(453.3991394042969 417.45999395767126) rotate(0 31.696054682413546 -53.107163726882476)">
		<path class="st0" d="M453.4,417.5C492.7,351.6,532,285.8,580.2,205 M453.4,417.5c39.5-66.1,78.9-132.2,126.8-212.4"/>
	</g>
	<g transform="translate(453.3991394042969 417.45999395767126) rotate(0 31.696054682413546 -53.107163726882476)">
		<path class="st13" d="M580.2,205l-3,29.8l-21.8-13L580.2,205"/>
		<path class="st0" d="M580.2,205c-0.9,9.2-1.9,18.5-3,29.8 M580.2,205c-0.9,9.3-1.9,18.6-3,29.8 M577.1,234.9
			c-7.5-4.5-15-9-21.8-13 M577.1,234.9c-6.4-3.8-12.8-7.6-21.8-13 M555.4,221.9c9.6-6.5,19.1-13,24.8-16.8 M555.4,221.9
			c9.9-6.7,19.8-13.5,24.8-16.8 M580.2,205L580.2,205 M580.2,205L580.2,205"/>
	</g>
</g>
<g transform="translate(695.8069152832031 188.24371337890625) rotate(0 64.5 90.5)">
	<path class="st0" d="M695.8,188.2c92.8,0,185.6,0,258,0 M695.8,188.2c97.4,0,194.9,0,258,0 M953.8,188.2c0,130.3,0,260.6,0,362
		 M953.8,188.2c0,84,0,168,0,362 M953.8,550.2c-79.9,0-159.9,0-258,0 M953.8,550.2c-92.6,0-185.2,0-258,0 M695.8,550.2
		c0-103.6,0-207.2,0-362 M695.8,550.2c0-127.5,0-255.1,0-362"/>
</g>
<g transform="translate(718.1839904785156 203.5) rotate(0 42 11.5)">
	<text transform="matrix(1 0 0 1 719.9567 241.5004)" class="st2 st12">THREAD</text>
</g>
<g transform="translate(700.1839904785156 294) rotate(0 60 25.5)">
	<path class="st4" d="M700.2,294h240v102h-240"/>
	<path class="st0" d="M700.2,294c89.1,0,178.2,0,240,0 M700.2,294c49.1,0,98.1,0,240,0 M940.2,294c0,32.1,0,64.2,0,102 M940.2,294
		c0,22.1,0,44.3,0,102 M940.2,396c-58,0-115.9,0-240,0 M940.2,396c-74.4,0-148.8,0-240,0 M700.2,396c0-33.5,0-67,0-102 M700.2,396
		c0-31,0-62,0-102"/>
</g>
<g transform="translate(726.6839904785156 274.74371337890625) rotate(0 33.5 11.5)">
	<text transform="matrix(1 0 0 1 728.4781 312.744)" class="st2 st12">STACK</text>
</g>
<g transform="translate(711.1839904785156 310.5) rotate(0 49 9.5)">
	<text transform="matrix(1 0 0 1 713.153 340.5004)" class="st2 st3">async_main()</text>
</g>
<g transform="translate(669.9236755371094 104.24371337890625) rotate(0 95.5 165.5)">
	<path class="st0" d="M1051.9,435.2c0,9.1-0.2,18.3-0.7,27.3c-0.4,9.1-1.1,18.2-1.9,27.1c-0.9,9-2,17.9-3.2,26.8
		c-1.3,8.8-2.8,17.6-4.5,26.2c-1.7,8.6-3.6,17.1-5.7,25.5c-2.1,8.3-4.4,16.6-6.9,24.6s-5.2,15.9-8.1,23.5s-5.9,15.1-9.2,22.3
		c-3.2,7.2-6.6,14.2-10.2,20.9s-7.3,13.2-11.2,19.3c-3.9,6.2-7.9,12.1-12,17.7c-4.2,5.6-8.5,10.9-12.9,15.9c-4.4,5-8.9,9.7-13.6,14
		c-4.6,4.3-9.4,8.4-14.2,12c-4.8,3.7-9.7,7-14.7,9.9c-5,3-10,5.6-15.1,7.8c-5.1,2.2-10.3,4.1-15.4,5.6s-10.4,2.6-15.7,3.4
		c-5.2,0.8-10.5,1.1-15.8,1.1s-10.5-0.4-15.8-1.1c-5.2-0.7-10.5-1.9-15.7-3.4s-10.4-3.4-15.4-5.6c-5.1-2.2-10.2-4.9-15.1-7.8
		c-5-3-9.9-6.3-14.7-9.9c-4.8-3.7-9.6-7.7-14.2-12c-4.6-4.3-9.2-9-13.6-14c-4.4-5-8.7-10.3-12.9-15.9c-4.1-5.6-8.2-11.5-12-17.7
		c-3.9-6.2-7.6-12.6-11.2-19.3s-7-13.7-10.2-20.9c-3.2-7.2-6.3-14.6-9.2-22.3s-5.6-15.5-8.1-23.5s-4.8-16.2-6.9-24.6
		c-2.1-8.3-4-16.9-5.7-25.5c-1.7-8.6-3.2-17.4-4.5-26.2c-1.3-8.8-2.4-17.8-3.2-26.8c-0.9-9-1.5-18.1-1.9-27.1
		c-0.4-9.1-0.7-18.2-0.7-27.3s0.2-18.3,0.7-27.3c0.4-9.1,1.1-18.2,1.9-27.1c0.9-9,2-17.9,3.2-26.8c1.3-8.8,2.8-17.6,4.5-26.2
		c1.7-8.6,3.6-17.1,5.7-25.5c2.1-8.3,4.4-16.6,6.9-24.6s5.2-15.9,8.1-23.5c2.9-7.6,5.9-15.1,9.2-22.3c3.2-7.2,6.6-14.2,10.2-20.9
		s7.3-13.2,11.2-19.3c3.9-6.2,7.9-12.1,12-17.7c4.2-5.6,8.5-10.9,12.9-15.9c4.4-5,8.9-9.7,13.6-14c4.6-4.3,9.4-8.4,14.2-12
		c4.8-3.7,9.7-7,14.7-9.9c5-3,10-5.6,15.1-7.8c5.1-2.2,10.3-4.1,15.4-5.6s10.4-2.6,15.7-3.4c5.2-0.8,10.5-1.1,15.8-1.1
		s10.5,0.4,15.8,1.1c5.2,0.7,10.5,1.9,15.7,3.4s10.4,3.4,15.4,5.6c5.1,2.2,10.2,4.9,15.1,7.8c5,3,9.9,6.3,14.7,9.9s9.6,7.7,14.2,12
		c4.6,4.3,9.2,9,13.6,14c4.4,5,8.7,10.3,12.9,15.9c4.1,5.6,8.2,11.5,12,17.7c3.9,6.2,7.6,12.6,11.2,19.3s7,13.7,10.2,20.9
		c3.2,7.2,6.3,14.6,9.2,22.3c2.9,7.6,5.6,15.5,8.1,23.5s4.8,16.2,6.9,24.6c2.1,8.3,4,16.9,5.7,25.5c1.7,8.6,3.2,17.4,4.5,26.2
		c1.3,8.8,2.4,17.8,3.2,26.8c0.9,9,1.5,18.1,1.9,27.1C1051.7,417,1051.9,426.1,1051.9,435.2"/>
</g>
<g transform="translate(728.3069152832031 130.24371337890625) rotate(0 30.5 16)">
	<text transform="matrix(1 0 0 1 730.1892 182.2439)" class="st2 st14">CPU</text>
</g>
<g>
	<g transform="translate(585.2407531738282 266.96950715206987) rotate(0 43.78308105468744 -0.19124939637765692)">
		<path class="st0" d="M585.2,267c56.2-0.2,112.4-0.5,175.1-0.8 M585.2,267c40.3-0.2,80.7-0.4,175.1-0.8"/>
	</g>
	<g transform="translate(585.2407531738282 266.96950715206987) rotate(0 43.78308105468744 -0.19124939637765692)">
		<path class="st13" d="M760.4,266.2L733.2,279l-0.1-25.4L760.4,266.2"/>
		<path class="st0" d="M760.4,266.2c-8.7,4.1-17.4,8.2-27.1,12.8 M760.4,266.2c-6.3,2.9-12.5,5.9-27.1,12.8 M733.2,279
			c0-9.6-0.1-19.1-0.1-25.4 M733.2,279c0-5.9-0.1-11.8-0.1-25.4 M733.1,253.6c7.9,3.7,15.9,7.3,27.3,12.6 M733.1,253.6
			c8.7,4,17.4,8,27.3,12.6 M760.4,266.2L760.4,266.2 M760.4,266.2L760.4,266.2"/>
	</g>
</g>
<g transform="translate(10.240753173828125 55) rotate(0 313.3268127441406 213)">
	<path class="st0" d="M10.2,55c401.7,0,803.4,0,1253.3,0 M10.2,55c366.1,0,732.3,0,1253.3,0 M1263.5,55c0,310.1,0,620.3,0,852
		 M1263.5,55c0,312,0,624.1,0,852 M1263.5,907c-335.9,0-671.7,0-1253.3,0 M1263.5,907c-465.8,0-931.7,0-1253.3,0 M10.2,907
		c0-295.1,0-590.2,0-852 M10.2,907c0-330,0-660,0-852"/>
</g>
<g transform="translate(162.74075317382812 65) rotate(0 63.5 16)">
	<text transform="matrix(1 0 0 1 165.2446 117.0004)" class="st2 st14">Process 1</text>
</g>
<g transform="translate(41.136444091796875 98.53933715820312) rotate(0 85 9.5)">
	<text transform="matrix(1 0 0 1 43.0506 128.5391)" class="st11 st2 st3">coroutine control blocks</text>
</g>
<g transform="translate(284.2407531738281 409.31549072265625) rotate(0 19 12.5)">
	<text transform="matrix(1 0 0 1 284.2407 445.3157)" class="st15 st12">. . .</text>
</g>
<g transform="translate(281.2407531738281 310.31549072265625) rotate(0 19 12.5)">
	<text transform="matrix(1 0 0 1 281.2407 346.3157)" class="st15 st12">. . .</text>
</g>
<g transform="translate(288.2407531738281 213.31549072265625) rotate(0 19 12.5)">
	<text transform="matrix(1 0 0 1 288.2407 249.3157)" class="st15 st12">. . .</text>
</g>
<g>
	<g transform="translate(188.88861083984375 274.0762634277344) rotate(0 254.5485076904297 21.853073120117188)">
		<path class="st9" d="M188.9,274.1c169.7,14.6,848.5,72.8,1018.2,87.4"/>
	</g>
	<g transform="translate(188.88861083984375 274.0762634277344) rotate(0 254.5485076904297 21.853073120117188)">
		<path class="st10" d="M1149.1,377.1c20.2-5.4,40.3-10.9,57.9-15.6"/>
	</g>
	<g transform="translate(188.88861083984375 274.0762634277344) rotate(0 254.5485076904297 21.853073120117188)">
		<path class="st10" d="M1152.7,336.2c18.9,8.8,37.9,17.6,54.4,25.3"/>
	</g>
</g>
<g transform="translate(229.33773803710938 122.41357421875) rotate(0 109.64764404296875 18.704269409179688)">
	<path class="st16" d="M229.3,122.4h438.6v74.8H229.3"/>
	<path class="st0" d="M229.3,122.4c96.8,0,193.7,0,438.6,0 M229.3,122.4c94.9,0,189.9,0,438.6,0 M667.9,122.4c0,24.2,0,48.4,0,74.8
		 M667.9,122.4c0,17.4,0,34.9,0,74.8 M667.9,197.2c-131.7,0-263.4,0-438.6,0 M667.9,197.2c-146.3,0-292.7,0-438.6,0 M229.3,197.2
		c0-20.2,0-40.3,0-74.8 M229.3,197.2c0-29.7,0-59.4,0-74.8"/>
</g>
<g transform="translate(340.3598937988281 100.08660888671875) rotate(0 53.5 9.5)">
	<text transform="matrix(1 0 0 1 342.4301 130.0866)" class="st11 st2 st3">priority_bitmap</text>
</g>
<g transform="translate(434.9152526855469 131.71994018554688) rotate(0 3.5 12.5)">
	<text transform="matrix(1 0 0 1 434.9148 167.7199)" class="st4 st15 st12">1</text>
</g>
<g transform="translate(354.5563507080078 131.71994018554688) rotate(0 3.5 12.5)">
	<text transform="matrix(1 0 0 1 354.5569 167.7199)" class="st1 st15 st12">1</text>
</g>
<g transform="translate(379.3426513671875 131.71994018554688) rotate(0 3.5 12.5)">
	<text transform="matrix(1 0 0 1 379.3429 167.7199)" class="st5 st15 st12">1</text>
</g>
<g transform="translate(298.7700500488281 131.71994018554688) rotate(0 19 12.5)">
	<text transform="matrix(1 0 0 1 298.77 167.7199)" class="st15 st12">. . .</text>
</g>
<g transform="translate(404.1289520263672 131.71994018554688) rotate(0 6.5 11.5)">
	<text transform="matrix(1 0 0 1 404.1288 169.7199)" class="st2 st12">0</text>
</g>
<g transform="translate(100.1998291015625 532.9358579255738) rotate(0 89.69073486328125 16.5)">
	<path class="st16" d="M100.2,532.9H459v66H100.2"/>
	<path class="st0" d="M100.2,532.9c108.5,0,216.9,0,358.8,0 M100.2,532.9c105.4,0,210.8,0,358.8,0 M459,532.9c0,25,0,50,0,66
		 M459,532.9c0,26.2,0,52.4,0,66 M459,598.9c-91.5,0-183,0-358.8,0 M459,598.9c-122.9,0-245.8,0-358.8,0 M100.2,598.9
		c0-17.4,0-34.8,0-66 M100.2,598.9c0-24.1,0-48.2,0-66"/>
</g>
<g transform="translate(10.240753173828125 498.30174255371094) rotate(0 136.16177368164062 39.877655029296875)">
	<path class="st0" d="M10.2,498.3c203.8,0,407.6,0,544.6,0 M10.2,498.3c162.4,0,324.7,0,544.6,0 M554.9,498.3c0,37.6,0,75.1,0,159.5
		 M554.9,498.3c0,47.5,0,95,0,159.5 M554.9,657.8c-134.7,0-269.4,0-544.6,0 M554.9,657.8c-192,0-384,0-544.6,0 M10.2,657.8
		c0-51.8,0-103.6,0-159.5 M10.2,657.8c0-49.8,0-99.5,0-159.5"/>
</g>
<g transform="translate(82.0316162109375 502.66929626464844) rotate(0 45.5 11.5)">
	<text transform="matrix(1 0 0 1 82.0319 540.6689)" class="st2 st12">Process 2</text>
</g>
<g transform="translate(187.51045388343346 514.4281478753011) rotate(0 44 7.5)">
	<text transform="matrix(1 0 0 1 189.679 538.4286)" class="st11 st2 st17">priority_bitmap</text>
</g>
<g transform="translate(263.97777095348545 544.9358579255738) rotate(0 5.5 9.5)">
	<text transform="matrix(1 0 0 1 263.9773 574.9356)" class="st2 st18">0</text>
</g>
<g transform="translate(198.24494984200408 544.9358579255738) rotate(0 3 10.5)">
	<text transform="matrix(1 0 0 1 198.2453 574.9356)" class="st15 st18">1</text>
</g>
<g transform="translate(218.70261998821877 544.9358579255738) rotate(0 3 10.5)">
	<text transform="matrix(1 0 0 1 218.7027 574.9356)" class="st15 st18">1</text>
</g>
<g transform="translate(152.61228399589618 546.9791453588931) rotate(0 16 10.5)">
	<text transform="matrix(1 0 0 1 152.6123 576.9792)" class="st15 st18">. . .</text>
</g>
<g transform="translate(238.88622386992654 544.9358579255738) rotate(0 5.5 9.5)">
	<text transform="matrix(1 0 0 1 238.8862 574.9356)" class="st2 st18">0</text>
</g>
<g transform="translate(10 594.9951477050781) rotate(0 136.16177368164062 39.877655029296875)">
	<path class="st0" d="M10,595c129.9,0,259.8,0,544.6,0 M10,595c159.6,0,319.2,0,544.6,0 M554.6,595c0,44.1,0,88.2,0,159.5
		 M554.6,595c0,40.8,0,81.6,0,159.5 M554.6,754.5c-202,0-404,0-544.6,0 M554.6,754.5c-197.7,0-395.3,0-544.6,0 M10,754.5
		c0-48,0-96.1,0-159.5 M10,754.5c0-50.4,0-100.8,0-159.5"/>
</g>
<g transform="translate(81.79086303710938 599.4829406738281) rotate(0 45.5 11.5)">
	<text transform="matrix(1 0 0 1 81.7907 637.4833)" class="st2 st12">Process 3</text>
</g>
<g transform="translate(95.87042236328125 636.380699154364) rotate(0 89.69073486328125 16.5)">
	<path class="st16" d="M95.9,636.4h358.8v66H95.9"/>
	<path class="st0" d="M95.9,636.4c117.7,0,235.5,0,358.8,0 M95.9,636.4c82.1,0,164.1,0,358.8,0 M454.6,636.4c0,23.7,0,47.5,0,66
		 M454.6,636.4c0,23.5,0,46.9,0,66 M454.6,702.4c-92.9,0-185.9,0-358.8,0 M454.6,702.4c-121.3,0-242.6,0-358.8,0 M95.9,702.4
		c0-21.6,0-43.3,0-66 M95.9,702.4c0-18.6,0-37.2,0-66"/>
</g>
<g transform="translate(186.25132912757408 617.9170242180744) rotate(0 44 7.5)">
	<text transform="matrix(1 0 0 1 188.4205 641.9173)" class="st11 st2 st17">priority_bitmap</text>
</g>
<g transform="translate(263.73701777965744 643.7927897680729) rotate(0 5.5 9.5)">
	<text transform="matrix(1 0 0 1 263.7376 673.7925)" class="st2 st18">1</text>
</g>
<g transform="translate(198.1222996955197 643.7927897680729) rotate(0 3 10.5)">
	<text transform="matrix(1 0 0 1 198.1218 673.7925)" class="st15 st18">1</text>
</g>
<g transform="translate(216.5998692347796 643.7927897680729) rotate(0 5.5 9.5)">
	<text transform="matrix(1 0 0 1 216.5993 673.7925)" class="st2 st18">0</text>
</g>
<g transform="translate(152.4896338494118 643.7927897680729) rotate(0 16 10.5)">
	<text transform="matrix(1 0 0 1 152.4899 673.7925)" class="st15 st18">. . .</text>
</g>
<g transform="translate(240.3515050385464 643.7927897680729) rotate(0 5.5 9.5)">
	<text transform="matrix(1 0 0 1 240.3516 673.7925)" class="st2 st18">0</text>
</g>
<g transform="translate(12.165283203125 680.68408203125) rotate(0 15 11.5)">
	<text transform="matrix(1 0 0 1 12.1653 718.6844)" class="st2 st12">. . .</text>
</g>
<g transform="translate(304.6305847167969 499.71661376953125) rotate(0 165.83560180664062 87.47085571289062)">
	<path class="st0" d="M304.6,499.7c207.2,0,414.5,0,663.3,0 M304.6,499.7c137.2,0,274.3,0,663.3,0 M968,499.7
		c0,71.6,0,143.3,0,349.9 M968,499.7c0,70.3,0,140.6,0,349.9 M968,849.6c-185.1,0-370.2,0-663.3,0 M968,849.6
		c-261.7,0-523.4,0-663.3,0 M304.6,849.6c0-79.8,0-159.6,0-349.9 M304.6,849.6c0-134.9,0-269.8,0-349.9"/>
</g>
<g transform="translate(413.2407531738281 502.5) rotate(0 41 11.5)">
	<text transform="matrix(1 0 0 1 413.2407 540.5004)" class="st2 st12">KERNEL</text>
</g>
<g>
	<g transform="translate(229.8877421735782 163.02719116210943) rotate(0 42.78528558066404 191.37237888038018)">
		<path class="st19" d="M229.9,163c2,122.1,3.9,244.3,9.5,593.7 M239.4,756.8c50.8,54,101.6,108,161.6,171.7"/>
	</g>
	<g transform="translate(229.8877421735782 163.02719116210943) rotate(0 42.78528558066404 191.37237888038018)">
		<path class="st20" d="M347.4,901.5c11,5.5,22,11.1,53.6,27"/>
	</g>
	<g transform="translate(229.8877421735782 163.02719116210943) rotate(0 42.78528558066404 191.37237888038018)">
		<path class="st20" d="M377.3,873.4c4.9,11.3,9.8,22.7,23.7,55.1"/>
	</g>
</g>
<g>
	<g transform="translate(276.51310174867206 569.3865045281882) rotate(0 18.888008528238288 1.0213913478737027)">
		<path class="st19" d="M276.5,569.4c16.7,0.9,33.5,1.8,75.6,4.1"/>
	</g>
	<g transform="translate(276.51310174867206 569.3865045281882) rotate(0 18.888008528238288 1.0213913478737027)">
		<path class="st20" d="M315.9,584.5c8-2.4,16-4.9,36.2-11"/>
	</g>
	<g transform="translate(276.51310174867206 569.3865045281882) rotate(0 18.888008528238288 1.0213913478737027)">
		<path class="st20" d="M317.3,558.6c7.7,3.3,15.4,6.6,34.8,14.8"/>
	</g>
</g>
<g>
	<g transform="translate(270.81730336435703 639.7944946289062) rotate(0 22.7706122072089 -25.86598067699117)">
		<path class="st19" d="M270.8,639.8c21.6-24.6,43.3-49.1,91.1-103.5"/>
	</g>
	<g transform="translate(270.81730336435703 639.7944946289062) rotate(0 22.7706122072089 -25.86598067699117)">
		<path class="st20" d="M340.1,592.2c5.2-13.3,10.4-26.5,21.8-55.9"/>
	</g>
	<g transform="translate(270.81730336435703 639.7944946289062) rotate(0 22.7706122072089 -25.86598067699117)">
		<path class="st20" d="M309.2,565.1c12.5-6.8,25-13.7,52.7-28.8"/>
	</g>
</g>
<g transform="translate(322.6215515136719 554.5285034179688) rotate(0 22 16)">
	<text transform="matrix(1 0 0 1 322.6216 606.5285)" class="st2 st14">OR</text>
</g>
<g>
	<g transform="translate(368.8899841308594 569.1996627145656) rotate(0 21.46527099609375 -0.7644759728789268)">
		<path class="st19" d="M368.9,569.2c28.7-1,57.4-2,85.9-3.1"/>
	</g>
	<g transform="translate(368.8899841308594 569.1996627145656) rotate(0 21.46527099609375 -0.7644759728789268)">
		<path class="st20" d="M414.9,582.3c13.3-5.4,26.6-10.8,39.8-16.1"/>
	</g>
	<g transform="translate(368.8899841308594 569.1996627145656) rotate(0 21.46527099609375 -0.7644759728789268)">
		<path class="st20" d="M413.9,552.9c13.6,4.4,27.3,8.8,40.9,13.2"/>
	</g>
</g>
<g transform="translate(412.8205261230469 542.4264068603516) rotate(0 109.64764404296875 18.704269409179688)">
	<path class="st16" d="M412.8,542.4h438.6v74.8H412.8"/>
	<path class="st0" d="M412.8,542.4c119.5,0,239.1,0,438.6,0 M412.8,542.4c111.1,0,222.2,0,438.6,0 M851.4,542.4
		c0,29.7,0,59.3,0,74.8 M851.4,542.4c0,15.7,0,31.4,0,74.8 M851.4,617.2c-175.4,0-350.8,0-438.6,0 M851.4,617.2
		c-134,0-268,0-438.6,0 M412.8,617.2c0-19.4,0-38.9,0-74.8 M412.8,617.2c0-28.9,0-57.8,0-74.8"/>
</g>
<g transform="translate(492.9364929199219 519.162841796875) rotate(0 68 9.5)">
	<text transform="matrix(1 0 0 1 494.6866 549.1627)" class="st11 st2 st3">SYSTEM_BITMAP</text>
</g>
<g transform="translate(513.0481872558594 553.1680297851562) rotate(0 59.5 11.5)">
	<text transform="matrix(1 0 0 1 551.4333 591.928)" class="st2 st12">. . . 1 1 0 1</text>
</g>
<g>
	<g transform="translate(624.4991936298263 577.359619140625) rotate(0 0.10329573469408615 12.072113037109375)">
		<path class="st0" d="M624.5,577.4c0.1,17.5,0.3,35,0.4,48.3 M624.5,577.4c0.1,12.3,0.2,24.6,0.4,48.3"/>
	</g>
	<g transform="translate(624.4991936298263 577.359619140625) rotate(0 0.10329573469408615 12.072113037109375)">
		<path class="st0" d="M616.5,603c3.1,8.2,6.1,16.4,8.5,22.6 M616.5,603c2.2,5.8,4.3,11.5,8.5,22.6"/>
	</g>
	<g transform="translate(624.4991936298263 577.359619140625) rotate(0 0.10329573469408615 12.072113037109375)">
		<path class="st0" d="M633,602.9c-2.9,8.3-5.8,16.5-8.1,22.8 M633,602.9c-2.1,5.8-4.1,11.6-8.1,22.8"/>
	</g>
</g>
<g transform="translate(579.1160491980406 615.4213409363329) rotate(0 23.5 18.5)">
	<text transform="matrix(1 0 0 1 579.1164 646.4218)" class="st2 st21">PID: 1</text>
	<text transform="matrix(1 0 0 1 579.1164 683.4218)" class="st2 st21">PID: 3</text>
</g>
<g transform="translate(570.7071838378906 607.666115157665) rotate(0 32.0987548828125 27.946605507105005)">
	<path class="st0" d="M570.7,607.7c49.3,0,98.6,0,128.4,0 M570.7,607.7c38.1,0,76.3,0,128.4,0 M699.1,607.7c0,35,0,70,0,111.8
		 M699.1,607.7c0,22.6,0,45.1,0,111.8 M699.1,719.4c-30.3,0-60.6,0-128.4,0 M699.1,719.4c-27.9,0-55.7,0-128.4,0 M570.7,719.4
		c0-39.8,0-79.7,0-111.8 M570.7,719.4c0-28.6,0-57.2,0-111.8"/>
</g>
<g transform="translate(441.5274963378906 588.3355712890625) rotate(0 91 18.5)">
	<text transform="matrix(1 0 0 1 441.5272 619.3357)" class="st2 st3">the PIDs with the highest</text>
	<text transform="matrix(1 0 0 1 441.5272 656.3357)" class="st2 st3">priority coroutines</text>
</g>
<g transform="translate(310.92628479003906 649.2393798828125) rotate(0 64.13803100585938 10.29736328125)">
	<path class="st16" d="M310.9,649.2h256.6v41.2H310.9"/>
	<path class="st0" d="M310.9,649.2c85.1,0,170.2,0,256.6,0 M310.9,649.2c58.7,0,117.4,0,256.6,0 M567.5,649.2c0,11.6,0,23.2,0,41.2
		 M567.5,649.2c0,10.2,0,20.4,0,41.2 M567.5,690.4c-74.6,0-149.3,0-256.6,0 M567.5,690.4c-86,0-172,0-256.6,0 M310.9,690.4
		c0-13.6,0-27.2,0-41.2 M310.9,690.4c0-15.8,0-31.5,0-41.2"/>
</g>
<g transform="translate(310.5020294189453 631.5497076061836) rotate(0 65.5 7.5)">
	<text transform="matrix(1 0 0 1 312.7451 655.5493)" class="st11 st2 st17">kernel_priority_bitmap</text>
</g>
<g transform="translate(356.2875518798828 649.5552978515625) rotate(0 41 9.5)">
	<text transform="matrix(1 0 0 1 356.2877 679.5554)" class="st2 st3">. . . 0 0 0 0</text>
</g>
<g>
	<g transform="translate(323.4633331298828 634.0421142578125) rotate(0 5.857452392578125 -20.081329345703125)">
		<path class="st19" d="M323.5,634c3.9-13.4,19.5-66.9,23.4-80.3"/>
	</g>
	<g transform="translate(323.4633331298828 634.0421142578125) rotate(0 5.857452392578125 -20.081329345703125)">
		<path class="st20" d="M349.6,595.5c-0.8-11.4-1.5-22.9-2.7-41.7"/>
	</g>
	<g transform="translate(323.4633331298828 634.0421142578125) rotate(0 5.857452392578125 -20.081329345703125)">
		<path class="st20" d="M322.1,587.4c6.8-9.2,13.6-18.5,24.7-33.7"/>
	</g>
</g>
</svg>
