<svg version="1.1" xmlns="http://www.w3.org/2000/svg" viewBox="0 0 787.4844733427555 541.5741424560547" width="1574.968946685511" height="1083.1482849121094">
  <!-- svg-source:excalidraw -->
  
  <defs>
    <style class="style-fonts">
      @font-face {
        font-family: "Virgil";
        src: url("https://excalidraw.com/Virgil.woff2");
      }
      @font-face {
        font-family: "Cascadia";
        src: url("https://excalidraw.com/Cascadia.woff2");
      }
    </style>
  </defs>
  <g stroke-linecap="round" transform="translate(137.36408149705233 10) rotate(0 87.39596557617188 106.66622924804688)"><path d="M32 0 M32 0 C58.53 0, 85.05 0, 142.79 0 M32 0 C72.6 0, 113.2 0, 142.79 0 M142.79 0 C164.13 0, 174.79 10.67, 174.79 32 M142.79 0 C164.13 0, 174.79 10.67, 174.79 32 M174.79 32 C174.79 78.74, 174.79 125.49, 174.79 181.33 M174.79 32 C174.79 65.11, 174.79 98.22, 174.79 181.33 M174.79 181.33 C174.79 202.67, 164.13 213.33, 142.79 213.33 M174.79 181.33 C174.79 202.67, 164.13 213.33, 142.79 213.33 M142.79 213.33 C110.03 213.33, 77.27 213.33, 32 213.33 M142.79 213.33 C113.26 213.33, 83.72 213.33, 32 213.33 M32 213.33 C10.67 213.33, 0 202.67, 0 181.33 M32 213.33 C10.67 213.33, 0 202.67, 0 181.33 M0 181.33 C0 130.47, 0 79.6, 0 32 M0 181.33 C0 134.57, 0 87.81, 0 32 M0 32 C0 10.67, 10.67 0, 32 0 M0 32 C0 10.67, 10.67 0, 32 0" stroke="#000000" stroke-width="1" fill="none"></path></g><g transform="translate(242.68164741502108 162.85955810546875) rotate(0 3 30)"><text x="0" y="14" font-family="Virgil, Segoe UI Emoji" font-size="16px" fill="#000000" text-anchor="start" style="white-space: pre;" direction="ltr">.</text><text x="0" y="34" font-family="Virgil, Segoe UI Emoji" font-size="16px" fill="#000000" text-anchor="start" style="white-space: pre;" direction="ltr">.</text><text x="0" y="54" font-family="Virgil, Segoe UI Emoji" font-size="16px" fill="#000000" text-anchor="start" style="white-space: pre;" direction="ltr">.</text></g><g transform="translate(191.30084907517733 67.01654052734375) rotate(0 55.5 9.5)"><text x="0" y="15" font-family="Helvetica, Segoe UI Emoji" font-size="16px" fill="#5f3dc4" text-anchor="start" style="white-space: pre;" direction="ltr">priority_queues</text></g><g stroke-linecap="round" transform="translate(185.60687934861483 132.44680786132812) rotate(0 60.07476806640625 16.480987548828125)"><path d="M0 0 C45.92 0, 91.84 0, 120.15 0 M0 0 C29.73 0, 59.45 0, 120.15 0 M120.15 0 C120.15 11.65, 120.15 23.3, 120.15 32.96 M120.15 0 C120.15 7.88, 120.15 15.76, 120.15 32.96 M120.15 32.96 C95.99 32.96, 71.83 32.96, 0 32.96 M120.15 32.96 C78.5 32.96, 36.86 32.96, 0 32.96 M0 32.96 C0 24.83, 0 16.7, 0 0 M0 32.96 C0 23.81, 0 14.66, 0 0" stroke="#000000" stroke-width="1" fill="none"></path></g><g transform="translate(238.18164741502108 139.42779541015625) rotate(0 7.5 9.5)"><text x="7.5" y="15" font-family="Helvetica, Segoe UI Emoji" font-size="16px" fill="#000000" text-anchor="middle" style="white-space: pre;" direction="ltr">...</text></g><g stroke-linecap="round" transform="translate(185.48963081345858 91.98919677734375) rotate(0 60.07476806640625 16.480987548828125)"><path d="M0 0 C36.99 0, 73.98 0, 120.15 0 M0 0 C31 0, 61.99 0, 120.15 0 M120.15 0 C120.15 8.12, 120.15 16.24, 120.15 32.96 M120.15 0 C120.15 10.52, 120.15 21.05, 120.15 32.96 M120.15 32.96 C92.91 32.96, 65.66 32.96, 0 32.96 M120.15 32.96 C95.1 32.96, 70.05 32.96, 0 32.96 M0 32.96 C0 21.61, 0 10.26, 0 0 M0 32.96 C0 20.17, 0 7.39, 0 0" stroke="#000000" stroke-width="1" fill="none"></path></g><g stroke-linecap="round" transform="translate(267.4836336105425 93.815673828125) rotate(0 17.356514226458046 15.109161376953125)"><path d="M18 0 L34.71 16 L18 30.22 L0 16" stroke="none" stroke-width="0" fill="#82c91e" fill-rule="evenodd"></path><path d="M18 0 C23.7 5.46, 29.41 10.92, 34.71 16 M18 0 C21.79 3.63, 25.59 7.26, 34.71 16 M34.71 16 C31.18 19.01, 27.64 22.02, 18 30.22 M34.71 16 C29.89 20.1, 25.06 24.21, 18 30.22 M18 30.22 C10.88 24.6, 3.77 18.97, 0 16 M18 30.22 C14.07 27.11, 10.14 24.01, 0 16 M0 16 C6.31 10.39, 12.62 4.78, 18 0 M0 16 C4.86 11.68, 9.71 7.37, 18 0" stroke="#000000" stroke-width="1" fill="none"></path></g><g transform="translate(273.3332217922833 102.5670431850831) rotate(0 11.5 7.5)"><text x="0" y="12" font-family="Helvetica, Segoe UI Emoji" font-size="12.27405444769829px" fill="#000000" text-anchor="start" style="white-space: pre;" direction="ltr">CID</text></g><g stroke-linecap="round" transform="translate(225.76489148934434 92.57046508789062) rotate(0 17.356514226458046 15.109161376953125)"><path d="M18 0 L34.71 16 L18 30.22 L0 16" stroke="none" stroke-width="0" fill="#82c91e" fill-rule="evenodd"></path><path d="M18 0 C22.71 4.51, 27.42 9.01, 34.71 16 M18 0 C22.41 4.22, 26.83 8.45, 34.71 16 M34.71 16 C28.68 21.13, 22.66 26.26, 18 30.22 M34.71 16 C30.59 19.51, 26.47 23.01, 18 30.22 M18 30.22 C10.81 24.54, 3.61 18.85, 0 16 M18 30.22 C12.56 25.92, 7.12 21.63, 0 16 M0 16 C4.11 12.35, 8.22 8.7, 18 0 M0 16 C6.53 10.19, 13.06 4.39, 18 0" stroke="#000000" stroke-width="1" fill="none"></path></g><g transform="translate(231.61447967108506 101.32183444484872) rotate(0 11.5 7.5)"><text x="0" y="12" font-family="Helvetica, Segoe UI Emoji" font-size="12.27405444769829px" fill="#000000" text-anchor="start" style="white-space: pre;" direction="ltr">CID</text></g><g transform="translate(201.20416938767733 96.56494140625) rotate(0 7.5 9.5)"><text x="0" y="15" font-family="Helvetica, Segoe UI Emoji" font-size="16px" fill="#000000" text-anchor="start" style="white-space: pre;" direction="ltr">...</text></g><g stroke-linecap="round" transform="translate(176.91770088181795 11.015823364257812) rotate(0 48.5 22)"><path d="M97 22 C97 23.15, 96.8 24.31, 96.4 25.44 C96.01 26.57, 95.41 27.71, 94.63 28.8 C93.84 29.89, 92.86 30.97, 91.71 31.99 C90.57 33.01, 89.22 34, 87.74 34.93 C86.25 35.86, 84.58 36.75, 82.79 37.56 C81.01 38.37, 79.05 39.12, 77.01 39.8 C74.96 40.47, 72.77 41.08, 70.52 41.6 C68.27 42.12, 65.89 42.57, 63.49 42.92 C61.08 43.28, 58.58 43.55, 56.09 43.73 C53.59 43.91, 51.03 44, 48.5 44 C45.97 44, 43.41 43.91, 40.91 43.73 C38.42 43.55, 35.92 43.28, 33.51 42.92 C31.11 42.57, 28.73 42.12, 26.48 41.6 C24.23 41.08, 22.04 40.47, 19.99 39.8 C17.95 39.12, 15.99 38.37, 14.21 37.56 C12.42 36.75, 10.75 35.86, 9.26 34.93 C7.78 34, 6.43 33.01, 5.29 31.99 C4.14 30.97, 3.16 29.89, 2.37 28.8 C1.59 27.71, 0.99 26.57, 0.6 25.44 C0.2 24.31, 0 23.15, 0 22 C0 20.85, 0.2 19.69, 0.6 18.56 C0.99 17.43, 1.59 16.29, 2.37 15.2 C3.16 14.11, 4.14 13.03, 5.29 12.01 C6.43 10.99, 7.78 10, 9.26 9.07 C10.75 8.14, 12.42 7.25, 14.21 6.44 C15.99 5.63, 17.95 4.88, 19.99 4.2 C22.04 3.53, 24.23 2.92, 26.48 2.4 C28.73 1.88, 31.11 1.43, 33.51 1.08 C35.92 0.72, 38.42 0.45, 40.91 0.27 C43.41 0.09, 45.97 0, 48.5 0 C51.03 0, 53.59 0.09, 56.09 0.27 C58.58 0.45, 61.08 0.72, 63.49 1.08 C65.89 1.43, 68.27 1.88, 70.52 2.4 C72.77 2.92, 74.96 3.53, 77.01 4.2 C79.05 4.88, 81.01 5.63, 82.79 6.44 C84.58 7.25, 86.25 8.14, 87.74 9.07 C89.22 10, 90.57 10.99, 91.71 12.01 C92.86 13.03, 93.84 14.11, 94.63 15.2 C95.41 16.29, 96.01 17.43, 96.4 18.56 C96.8 19.69, 96.9 21.43, 97 22 C97.1 22.57, 97.1 21.43, 97 22" stroke="none" stroke-width="0" fill="#82c91e"></path><path d="M97 22 C97 23.15, 96.8 24.31, 96.4 25.44 C96.01 26.57, 95.41 27.71, 94.63 28.8 C93.84 29.89, 92.86 30.97, 91.71 31.99 C90.57 33.01, 89.22 34, 87.74 34.93 C86.25 35.86, 84.58 36.75, 82.79 37.56 C81.01 38.37, 79.05 39.12, 77.01 39.8 C74.96 40.47, 72.77 41.08, 70.52 41.6 C68.27 42.12, 65.89 42.57, 63.49 42.92 C61.08 43.28, 58.58 43.55, 56.09 43.73 C53.59 43.91, 51.03 44, 48.5 44 C45.97 44, 43.41 43.91, 40.91 43.73 C38.42 43.55, 35.92 43.28, 33.51 42.92 C31.11 42.57, 28.73 42.12, 26.48 41.6 C24.23 41.08, 22.04 40.47, 19.99 39.8 C17.95 39.12, 15.99 38.37, 14.21 37.56 C12.42 36.75, 10.75 35.86, 9.26 34.93 C7.78 34, 6.43 33.01, 5.29 31.99 C4.14 30.97, 3.16 29.89, 2.37 28.8 C1.59 27.71, 0.99 26.57, 0.6 25.44 C0.2 24.31, 0 23.15, 0 22 C0 20.85, 0.2 19.69, 0.6 18.56 C0.99 17.43, 1.59 16.29, 2.37 15.2 C3.16 14.11, 4.14 13.03, 5.29 12.01 C6.43 10.99, 7.78 10, 9.26 9.07 C10.75 8.14, 12.42 7.25, 14.21 6.44 C15.99 5.63, 17.95 4.88, 19.99 4.2 C22.04 3.53, 24.23 2.92, 26.48 2.4 C28.73 1.88, 31.11 1.43, 33.51 1.08 C35.92 0.72, 38.42 0.45, 40.91 0.27 C43.41 0.09, 45.97 0, 48.5 0 C51.03 0, 53.59 0.09, 56.09 0.27 C58.58 0.45, 61.08 0.72, 63.49 1.08 C65.89 1.43, 68.27 1.88, 70.52 2.4 C72.77 2.92, 74.96 3.53, 77.01 4.2 C79.05 4.88, 81.01 5.63, 82.79 6.44 C84.58 7.25, 86.25 8.14, 87.74 9.07 C89.22 10, 90.57 10.99, 91.71 12.01 C92.86 13.03, 93.84 14.11, 94.63 15.2 C95.41 16.29, 96.01 17.43, 96.4 18.56 C96.8 19.69, 96.9 21.43, 97 22 C97.1 22.57, 97.1 21.43, 97 22" stroke="#000000" stroke-width="1" fill="none"></path></g><g transform="translate(201.41770088181795 23.515823364257812) rotate(0 24 9.5)"><text x="24" y="15" font-family="Helvetica, Segoe UI Emoji" font-size="16px" fill="#000000" text-anchor="middle" style="white-space: pre;" direction="ltr">Ready</text></g><g stroke-linecap="round"><g transform="translate(13.91058349609375 123.48625183105469) rotate(0 59.66782295213045 -0.1548614501953125)"><path d="M0 0 C34.55 -0.09, 69.11 -0.18, 119.34 -0.31 M0 0 C31.36 -0.08, 62.73 -0.16, 119.34 -0.31" stroke="#000000" stroke-width="1" fill="none"></path></g><g transform="translate(13.91058349609375 123.48625183105469) rotate(0 59.66782295213045 -0.1548614501953125)"><path d="M119.34 -0.31 L105.76 6.06 L105.72 -6.61 L119.34 -0.31" stroke="none" stroke-width="0" fill="#000000" fill-rule="evenodd"></path><path d="M119.34 -0.31 C115.4 1.54, 111.47 3.38, 105.76 6.06 M119.34 -0.31 C115.77 1.37, 112.2 3.04, 105.76 6.06 M105.76 6.06 C105.75 2.86, 105.74 -0.34, 105.72 -6.61 M105.76 6.06 C105.75 2.18, 105.74 -1.7, 105.72 -6.61 M105.72 -6.61 C110.3 -4.49, 114.88 -2.37, 119.34 -0.31 M105.72 -6.61 C110.92 -4.21, 116.11 -1.8, 119.34 -0.31 M119.34 -0.31 C119.34 -0.31, 119.34 -0.31, 119.34 -0.31 M119.34 -0.31 C119.34 -0.31, 119.34 -0.31, 119.34 -0.31" stroke="#000000" stroke-width="1" fill="none"></path></g></g><mask></mask><g transform="translate(10 97.27998352050781) rotate(0 60.5 9.5)"><text x="60.5" y="15" font-family="Helvetica, Segoe UI Emoji" font-size="16px" fill="#000000" text-anchor="middle" style="white-space: pre;" direction="ltr">create_coroutine</text></g><g stroke-linecap="round" transform="translate(400.9831916044742 10) rotate(0 87.39596557617188 106.66622924804688)"><path d="M32 0 M32 0 C68.1 0, 104.2 0, 142.79 0 M32 0 C75.53 0, 119.05 0, 142.79 0 M142.79 0 C164.13 0, 174.79 10.67, 174.79 32 M142.79 0 C164.13 0, 174.79 10.67, 174.79 32 M174.79 32 C174.79 73.81, 174.79 115.61, 174.79 181.33 M174.79 32 C174.79 72.64, 174.79 113.27, 174.79 181.33 M174.79 181.33 C174.79 202.67, 164.13 213.33, 142.79 213.33 M174.79 181.33 C174.79 202.67, 164.13 213.33, 142.79 213.33 M142.79 213.33 C109.25 213.33, 75.7 213.33, 32 213.33 M142.79 213.33 C105.64 213.33, 68.48 213.33, 32 213.33 M32 213.33 C10.67 213.33, 0 202.67, 0 181.33 M32 213.33 C10.67 213.33, 0 202.67, 0 181.33 M0 181.33 C0 127.96, 0 74.58, 0 32 M0 181.33 C0 140.22, 0 99.1, 0 32 M0 32 C0 10.67, 10.67 0, 32 0 M0 32 C0 10.67, 10.67 0, 32 0" stroke="#000000" stroke-width="1" fill="none"></path></g><g stroke-linecap="round" transform="translate(436.3794318388492 16.448999210279908) rotate(0 55.825653076171875 24.494929410973327)"><path d="M111.65 24.49 C111.65 25.66, 111.46 26.83, 111.08 27.98 C110.71 29.13, 110.14 30.28, 109.39 31.4 C108.64 32.51, 107.71 33.61, 106.61 34.67 C105.51 35.73, 104.22 36.76, 102.79 37.74 C101.36 38.72, 99.75 39.66, 98.02 40.54 C96.28 41.41, 94.39 42.25, 92.38 43.01 C90.38 43.77, 88.24 44.47, 86.01 45.1 C83.78 45.73, 81.43 46.29, 79.02 46.78 C76.61 47.26, 74.09 47.67, 71.55 48 C69.01 48.33, 66.39 48.58, 63.77 48.74 C61.15 48.91, 58.47 48.99, 55.83 48.99 C53.18 48.99, 50.5 48.91, 47.88 48.74 C45.26 48.58, 42.64 48.33, 40.1 48 C37.56 47.67, 35.04 47.26, 32.63 46.78 C30.23 46.29, 27.87 45.73, 25.64 45.1 C23.42 44.47, 21.27 43.77, 19.27 43.01 C17.27 42.25, 15.37 41.41, 13.64 40.54 C11.9 39.66, 10.29 38.72, 8.86 37.74 C7.43 36.76, 6.14 35.73, 5.04 34.67 C3.94 33.61, 3.01 32.51, 2.26 31.4 C1.52 30.28, 0.95 29.13, 0.57 27.98 C0.19 26.83, 0 25.66, 0 24.49 C0 23.33, 0.19 22.16, 0.57 21.01 C0.95 19.86, 1.52 18.71, 2.26 17.59 C3.01 16.48, 3.94 15.38, 5.04 14.32 C6.14 13.26, 7.43 12.23, 8.86 11.25 C10.29 10.27, 11.9 9.33, 13.64 8.45 C15.37 7.58, 17.27 6.74, 19.27 5.98 C21.27 5.22, 23.42 4.52, 25.64 3.89 C27.87 3.26, 30.23 2.7, 32.63 2.21 C35.04 1.73, 37.56 1.32, 40.1 0.99 C42.64 0.66, 45.26 0.41, 47.88 0.25 C50.5 0.08, 53.18 0, 55.83 0 C58.47 0, 61.15 0.08, 63.77 0.25 C66.39 0.41, 69.01 0.66, 71.55 0.99 C74.09 1.32, 76.61 1.73, 79.02 2.21 C81.43 2.7, 83.78 3.26, 86.01 3.89 C88.24 4.52, 90.38 5.22, 92.38 5.98 C94.39 6.74, 96.28 7.58, 98.02 8.45 C99.75 9.33, 101.36 10.27, 102.79 11.25 C104.22 12.23, 105.51 13.26, 106.61 14.32 C107.71 15.38, 108.64 16.48, 109.39 17.59 C110.14 18.71, 110.71 19.86, 111.08 21.01 C111.46 22.16, 111.56 23.91, 111.65 24.49 C111.75 25.08, 111.75 23.91, 111.65 24.49" stroke="none" stroke-width="0" fill="#fa5252"></path><path d="M111.65 24.49 C111.65 25.66, 111.46 26.83, 111.08 27.98 C110.71 29.13, 110.14 30.28, 109.39 31.4 C108.64 32.51, 107.71 33.61, 106.61 34.67 C105.51 35.73, 104.22 36.76, 102.79 37.74 C101.36 38.72, 99.75 39.66, 98.02 40.54 C96.28 41.41, 94.39 42.25, 92.38 43.01 C90.38 43.77, 88.24 44.47, 86.01 45.1 C83.78 45.73, 81.43 46.29, 79.02 46.78 C76.61 47.26, 74.09 47.67, 71.55 48 C69.01 48.33, 66.39 48.58, 63.77 48.74 C61.15 48.91, 58.47 48.99, 55.83 48.99 C53.18 48.99, 50.5 48.91, 47.88 48.74 C45.26 48.58, 42.64 48.33, 40.1 48 C37.56 47.67, 35.04 47.26, 32.63 46.78 C30.23 46.29, 27.87 45.73, 25.64 45.1 C23.42 44.47, 21.27 43.77, 19.27 43.01 C17.27 42.25, 15.37 41.41, 13.64 40.54 C11.9 39.66, 10.29 38.72, 8.86 37.74 C7.43 36.76, 6.14 35.73, 5.04 34.67 C3.94 33.61, 3.01 32.51, 2.26 31.4 C1.52 30.28, 0.95 29.13, 0.57 27.98 C0.19 26.83, 0 25.66, 0 24.49 C0 23.33, 0.19 22.16, 0.57 21.01 C0.95 19.86, 1.52 18.71, 2.26 17.59 C3.01 16.48, 3.94 15.38, 5.04 14.32 C6.14 13.26, 7.43 12.23, 8.86 11.25 C10.29 10.27, 11.9 9.33, 13.64 8.45 C15.37 7.58, 17.27 6.74, 19.27 5.98 C21.27 5.22, 23.42 4.52, 25.64 3.89 C27.87 3.26, 30.23 2.7, 32.63 2.21 C35.04 1.73, 37.56 1.32, 40.1 0.99 C42.64 0.66, 45.26 0.41, 47.88 0.25 C50.5 0.08, 53.18 0, 55.83 0 C58.47 0, 61.15 0.08, 63.77 0.25 C66.39 0.41, 69.01 0.66, 71.55 0.99 C74.09 1.32, 76.61 1.73, 79.02 2.21 C81.43 2.7, 83.78 3.26, 86.01 3.89 C88.24 4.52, 90.38 5.22, 92.38 5.98 C94.39 6.74, 96.28 7.58, 98.02 8.45 C99.75 9.33, 101.36 10.27, 102.79 11.25 C104.22 12.23, 105.51 13.26, 106.61 14.32 C107.71 15.38, 108.64 16.48, 109.39 17.59 C110.14 18.71, 110.71 19.86, 111.08 21.01 C111.46 22.16, 111.56 23.91, 111.65 24.49 C111.75 25.08, 111.75 23.91, 111.65 24.49" stroke="#000000" stroke-width="1" fill="none"></path></g><g transform="translate(462.7050849150211 31.943928621253235) rotate(0 29.5 9)"><text x="29.5" y="15" font-family="Helvetica, Segoe UI Emoji" font-size="15.378241078157362px" fill="#000000" text-anchor="middle" style="white-space: pre;" direction="ltr">Running</text></g><g stroke-linecap="round" transform="translate(477.28290659221364 90.36312866210938) rotate(0 42.64022734499741 65.61318969726562)"><path d="M0 0 C24 0, 48.01 0, 85.28 0 M0 0 C20.1 0, 40.2 0, 85.28 0 M85.28 0 C85.28 34.44, 85.28 68.88, 85.28 131.23 M85.28 0 C85.28 30.41, 85.28 60.82, 85.28 131.23 M85.28 131.23 C67.77 131.23, 50.27 131.23, 0 131.23 M85.28 131.23 C57.35 131.23, 29.43 131.23, 0 131.23 M0 131.23 C0 100.9, 0 70.57, 0 0 M0 131.23 C0 79.8, 0 28.37, 0 0" stroke="#000000" stroke-width="1" fill="none"></path></g><g transform="translate(491.811124900006 97.90057453778627) rotate(0 28 7.5)"><text x="0" y="12" font-family="Helvetica, Segoe UI Emoji" font-size="13.161936369309458px" fill="#000000" text-anchor="start" style="white-space: pre;" direction="ltr">THREAD</text></g><g stroke-linecap="round" transform="translate(477.6600751179333 142.39064479986178) rotate(0 42.21626421518158 34.7671607278171)"><path d="M0 0 L84.43 0 L84.43 69.53 L0 69.53" stroke="none" stroke-width="0" fill="#fa5252"></path><path d="M0 0 C18.43 0, 36.87 0, 84.43 0 M0 0 C25.89 0, 51.79 0, 84.43 0 M84.43 0 C84.43 20.58, 84.43 41.15, 84.43 69.53 M84.43 0 C84.43 16.57, 84.43 33.13, 84.43 69.53 M84.43 69.53 C57.78 69.53, 31.12 69.53, 0 69.53 M84.43 69.53 C52.57 69.53, 20.7 69.53, 0 69.53 M0 69.53 C0 43.11, 0 16.68, 0 0 M0 69.53 C0 50.68, 0 31.82, 0 0" stroke="#000000" stroke-width="1" fill="none"></path></g><g transform="translate(498.6707017307227 126.25997908205522) rotate(0 21.5 7.5)"><text x="0" y="12" font-family="Helvetica, Segoe UI Emoji" font-size="12.509355824631578px" fill="#000000" text-anchor="start" style="white-space: pre;" direction="ltr">STACK</text></g><g transform="translate(484.09232482905475 153.11494379913802) rotate(0 36 15)"><text x="0" y="12" font-family="Helvetica, Segoe UI Emoji" font-size="13.161936369309458px" fill="#000000" text-anchor="start" style="white-space: pre;" direction="ltr">coroutine's</text><text x="0" y="27" font-family="Helvetica, Segoe UI Emoji" font-size="13.161936369309458px" fill="#000000" text-anchor="start" style="white-space: pre;" direction="ltr">async_main</text></g><g transform="translate(319.6094999239432 86.90414673123269) rotate(0 38.5 9.5)"><text x="38.5" y="15" font-family="Helvetica, Segoe UI Emoji" font-size="16.344445616265755px" fill="#000000" text-anchor="middle" style="white-space: pre;" direction="ltr">pick to run</text></g><g stroke-linecap="round"><g transform="translate(324.25959363960726 119.93131705215274) rotate(0 36.7212907889853 0.12453051709712781)"><path d="M0 0 C24.23 0.08, 48.46 0.16, 73.44 0.25 M0 0 C26.48 0.09, 52.96 0.18, 73.44 0.25" stroke="#000000" stroke-width="1" fill="none"></path></g><g transform="translate(324.25959363960726 119.93131705215274) rotate(0 36.7212907889853 0.12453051709712781)"><path d="M73.44 0.25 L59.83 6.54 L59.87 -6.14 L73.44 0.25" stroke="none" stroke-width="0" fill="#000000" fill-rule="evenodd"></path><path d="M73.44 0.25 C68.95 2.33, 64.46 4.4, 59.83 6.54 M73.44 0.25 C68.53 2.52, 63.62 4.79, 59.83 6.54 M59.83 6.54 C59.84 2.11, 59.86 -2.33, 59.87 -6.14 M59.83 6.54 C59.84 3.92, 59.84 1.3, 59.87 -6.14 M59.87 -6.14 C63.21 -4.56, 66.56 -2.99, 73.44 0.25 M59.87 -6.14 C63.63 -4.37, 67.38 -2.6, 73.44 0.25 M73.44 0.25 C73.44 0.25, 73.44 0.25, 73.44 0.25 M73.44 0.25 C73.44 0.25, 73.44 0.25, 73.44 0.25" stroke="#000000" stroke-width="1" fill="none"></path></g></g><mask></mask><g stroke-linecap="round"><g transform="translate(581.672277129741 122.01162682170889) rotate(0 36.84071401246979 -0.4891731737242253)"><path d="M0 0 C20.07 -0.27, 40.13 -0.53, 73.68 -0.98 M0 0 C20.28 -0.27, 40.55 -0.54, 73.68 -0.98" stroke="#000000" stroke-width="1" fill="none"></path></g><g transform="translate(581.672277129741 122.01162682170889) rotate(0 36.84071401246979 -0.4891731737242253)"><path d="M73.68 -0.98 L60.17 5.54 L60 -7.14 L73.68 -0.98" stroke="none" stroke-width="0" fill="#000000" fill-rule="evenodd"></path><path d="M73.68 -0.98 C70 0.8, 66.32 2.57, 60.17 5.54 M73.68 -0.98 C69.96 0.82, 66.25 2.61, 60.17 5.54 M60.17 5.54 C60.13 2.04, 60.08 -1.46, 60 -7.14 M60.17 5.54 C60.12 1.52, 60.07 -2.51, 60 -7.14 M60 -7.14 C64.9 -4.93, 69.8 -2.73, 73.68 -0.98 M60 -7.14 C63.01 -5.78, 66.02 -4.43, 73.68 -0.98 M73.68 -0.98 C73.68 -0.98, 73.68 -0.98, 73.68 -0.98 M73.68 -0.98 C73.68 -0.98, 73.68 -0.98, 73.68 -0.98" stroke="#000000" stroke-width="1" fill="none"></path></g></g><mask></mask><g transform="translate(579.6112010034866 91.07360877399424) rotate(0 33.5 9)"><text x="33.5" y="15" font-family="Helvetica, Segoe UI Emoji" font-size="15.532877540025188px" fill="#000000" text-anchor="middle" style="white-space: pre;" direction="ltr">terminate</text></g><g stroke-linecap="round" transform="translate(656.4844733427555 87.19268798828125) rotate(0 60.5 34)"><path d="M121 34 C121 35.48, 120.83 36.97, 120.48 38.44 C120.14 39.9, 119.62 41.37, 118.94 42.8 C118.26 44.23, 117.4 45.64, 116.39 47.01 C115.39 48.38, 114.21 49.72, 112.89 51 C111.58 52.28, 110.1 53.52, 108.5 54.7 C106.9 55.87, 105.14 57, 103.28 58.04 C101.42 59.09, 99.42 60.07, 97.33 60.97 C95.24 61.87, 93.03 62.71, 90.75 63.44 C88.47 64.18, 86.08 64.85, 83.65 65.41 C81.22 65.98, 78.7 66.46, 76.16 66.84 C73.62 67.22, 71.01 67.52, 68.4 67.71 C65.79 67.9, 63.13 68, 60.5 68 C57.87 68, 55.21 67.9, 52.6 67.71 C49.99 67.52, 47.38 67.22, 44.84 66.84 C42.3 66.46, 39.78 65.98, 37.35 65.41 C34.92 64.85, 32.53 64.18, 30.25 63.44 C27.97 62.71, 25.76 61.87, 23.67 60.97 C21.58 60.07, 19.58 59.09, 17.72 58.04 C15.86 57, 14.1 55.87, 12.5 54.7 C10.9 53.52, 9.42 52.28, 8.11 51 C6.79 49.72, 5.61 48.38, 4.61 47.01 C3.6 45.64, 2.74 44.23, 2.06 42.8 C1.38 41.37, 0.86 39.9, 0.52 38.44 C0.17 36.97, 0 35.48, 0 34 C0 32.52, 0.17 31.03, 0.52 29.56 C0.86 28.1, 1.38 26.63, 2.06 25.2 C2.74 23.77, 3.6 22.36, 4.61 20.99 C5.61 19.62, 6.79 18.28, 8.11 17 C9.42 15.72, 10.9 14.48, 12.5 13.3 C14.1 12.13, 15.86 11, 17.72 9.96 C19.58 8.91, 21.58 7.93, 23.67 7.03 C25.76 6.13, 27.97 5.29, 30.25 4.56 C32.53 3.82, 34.92 3.15, 37.35 2.59 C39.78 2.02, 42.3 1.54, 44.84 1.16 C47.38 0.78, 49.99 0.48, 52.6 0.29 C55.21 0.1, 57.87 0, 60.5 0 C63.13 0, 65.79 0.1, 68.4 0.29 C71.01 0.48, 73.62 0.78, 76.16 1.16 C78.7 1.54, 81.22 2.02, 83.65 2.59 C86.08 3.15, 88.47 3.82, 90.75 4.56 C93.03 5.29, 95.24 6.13, 97.33 7.03 C99.42 7.93, 101.42 8.91, 103.28 9.96 C105.14 11, 106.9 12.13, 108.5 13.3 C110.1 14.48, 111.58 15.72, 112.89 17 C114.21 18.28, 115.39 19.62, 116.39 20.99 C117.4 22.36, 118.26 23.77, 118.94 25.2 C119.62 26.63, 120.14 28.1, 120.48 29.56 C120.83 31.03, 120.91 33.26, 121 34 C121.09 34.74, 121.09 33.26, 121 34" stroke="none" stroke-width="0" fill="#fab005"></path><path d="M121 34 C121 35.48, 120.83 36.97, 120.48 38.44 C120.14 39.9, 119.62 41.37, 118.94 42.8 C118.26 44.23, 117.4 45.64, 116.39 47.01 C115.39 48.38, 114.21 49.72, 112.89 51 C111.58 52.28, 110.1 53.52, 108.5 54.7 C106.9 55.87, 105.14 57, 103.28 58.04 C101.42 59.09, 99.42 60.07, 97.33 60.97 C95.24 61.87, 93.03 62.71, 90.75 63.44 C88.47 64.18, 86.08 64.85, 83.65 65.41 C81.22 65.98, 78.7 66.46, 76.16 66.84 C73.62 67.22, 71.01 67.52, 68.4 67.71 C65.79 67.9, 63.13 68, 60.5 68 C57.87 68, 55.21 67.9, 52.6 67.71 C49.99 67.52, 47.38 67.22, 44.84 66.84 C42.3 66.46, 39.78 65.98, 37.35 65.41 C34.92 64.85, 32.53 64.18, 30.25 63.44 C27.97 62.71, 25.76 61.87, 23.67 60.97 C21.58 60.07, 19.58 59.09, 17.72 58.04 C15.86 57, 14.1 55.87, 12.5 54.7 C10.9 53.52, 9.42 52.28, 8.11 51 C6.79 49.72, 5.61 48.38, 4.61 47.01 C3.6 45.64, 2.74 44.23, 2.06 42.8 C1.38 41.37, 0.86 39.9, 0.52 38.44 C0.17 36.97, 0 35.48, 0 34 C0 32.52, 0.17 31.03, 0.52 29.56 C0.86 28.1, 1.38 26.63, 2.06 25.2 C2.74 23.77, 3.6 22.36, 4.61 20.99 C5.61 19.62, 6.79 18.28, 8.11 17 C9.42 15.72, 10.9 14.48, 12.5 13.3 C14.1 12.13, 15.86 11, 17.72 9.96 C19.58 8.91, 21.58 7.93, 23.67 7.03 C25.76 6.13, 27.97 5.29, 30.25 4.56 C32.53 3.82, 34.92 3.15, 37.35 2.59 C39.78 2.02, 42.3 1.54, 44.84 1.16 C47.38 0.78, 49.99 0.48, 52.6 0.29 C55.21 0.1, 57.87 0, 60.5 0 C63.13 0, 65.79 0.1, 68.4 0.29 C71.01 0.48, 73.62 0.78, 76.16 1.16 C78.7 1.54, 81.22 2.02, 83.65 2.59 C86.08 3.15, 88.47 3.82, 90.75 4.56 C93.03 5.29, 95.24 6.13, 97.33 7.03 C99.42 7.93, 101.42 8.91, 103.28 9.96 C105.14 11, 106.9 12.13, 108.5 13.3 C110.1 14.48, 111.58 15.72, 112.89 17 C114.21 18.28, 115.39 19.62, 116.39 20.99 C117.4 22.36, 118.26 23.77, 118.94 25.2 C119.62 26.63, 120.14 28.1, 120.48 29.56 C120.83 31.03, 120.91 33.26, 121 34 C121.09 34.74, 121.09 33.26, 121 34" stroke="#000000" stroke-width="1" fill="none"></path></g><g transform="translate(676.4844733427555 111.69268798828125) rotate(0 40.5 9.5)"><text x="40.5" y="15" font-family="Helvetica, Segoe UI Emoji" font-size="16px" fill="#000000" text-anchor="middle" style="white-space: pre;" direction="ltr">Terminated</text></g><g stroke-linecap="round" transform="translate(150.61267768845858 299.3785858154297) rotate(0 206.097900390625 116.0977783203125)"><path d="M32 0 M32 0 C168.2 0, 304.4 0, 380.2 0 M32 0 C132.72 0, 233.44 0, 380.2 0 M380.2 0 C401.53 0, 412.2 10.67, 412.2 32 M380.2 0 C401.53 0, 412.2 10.67, 412.2 32 M412.2 32 C412.2 83.35, 412.2 134.69, 412.2 200.2 M412.2 32 C412.2 75.29, 412.2 118.57, 412.2 200.2 M412.2 200.2 C412.2 221.53, 401.53 232.2, 380.2 232.2 M412.2 200.2 C412.2 221.53, 401.53 232.2, 380.2 232.2 M380.2 232.2 C266.79 232.2, 153.38 232.2, 32 232.2 M380.2 232.2 C288.77 232.2, 197.35 232.2, 32 232.2 M32 232.2 C10.67 232.2, 0 221.53, 0 200.2 M32 232.2 C10.67 232.2, 0 221.53, 0 200.2 M0 200.2 C0 161.02, 0 121.85, 0 32 M0 200.2 C0 136.48, 0 72.77, 0 32 M0 32 C0 10.67, 10.67 0, 32 0 M0 32 C0 10.67, 10.67 0, 32 0" stroke="#000000" stroke-width="1" fill="none"></path></g><g transform="translate(480.1073676298648 414.6046600341797) rotate(0 17 9.5)"><text x="0" y="15" font-family="Helvetica, Segoe UI Emoji" font-size="16px" fill="#000000" text-anchor="start" style="white-space: pre;" direction="ltr">KEY</text></g><g stroke-linecap="round" transform="translate(478.6046515654117 411.9613494873047) rotate(0 18.502716064453125 12.143310546875)"><path d="M0 0 C11.76 0, 23.52 0, 37.01 0 M0 0 C9.25 0, 18.5 0, 37.01 0 M37.01 0 C37.01 5.89, 37.01 11.77, 37.01 24.29 M37.01 0 C37.01 9.64, 37.01 19.29, 37.01 24.29 M37.01 24.29 C23.87 24.29, 10.74 24.29, 0 24.29 M37.01 24.29 C23.72 24.29, 10.44 24.29, 0 24.29 M0 24.29 C0 17.97, 0 11.65, 0 0 M0 24.29 C0 16.07, 0 7.84, 0 0" stroke="#000000" stroke-width="1" fill="none"></path></g><g stroke-linecap="round" transform="translate(402.23019300301587 407.72816467285156) rotate(0 17.356514226458046 15.109161376953125)"><path d="M18 0 L34.71 16 L18 30.22 L0 16" stroke="none" stroke-width="0" fill="#15aabf" fill-rule="evenodd"></path><path d="M18 0 C22.4 4.22, 26.81 8.43, 34.71 16 M18 0 C23.83 5.59, 29.67 11.17, 34.71 16 M34.71 16 C29.76 20.21, 24.82 24.42, 18 30.22 M34.71 16 C30.61 19.49, 26.5 22.98, 18 30.22 M18 30.22 C13.53 26.69, 9.07 23.16, 0 16 M18 30.22 C12.52 25.89, 7.03 21.55, 0 16 M0 16 C4.89 11.65, 9.79 7.3, 18 0 M0 16 C4.84 11.7, 9.69 7.39, 18 0" stroke="#000000" stroke-width="1" fill="none"></path></g><g transform="translate(408.0797811847566 416.47953402980966) rotate(0 11.5 7.5)"><text x="0" y="12" font-family="Helvetica, Segoe UI Emoji" font-size="12.27405444769829px" fill="#000000" text-anchor="start" style="white-space: pre;" direction="ltr">CID</text></g><g stroke-linecap="round"><g transform="translate(477.2031623075992 423.2028045654297) rotate(0 -17.977386474609375 0.42828369140625)"><path d="M0 0 C-9.35 0.22, -18.7 0.45, -35.95 0.86 M0 0 C-12.55 0.3, -25.1 0.6, -35.95 0.86" stroke="#000000" stroke-width="1" fill="none"></path></g><g transform="translate(477.2031623075992 423.2028045654297) rotate(0 -17.977386474609375 0.42828369140625)"><path d="M-19.21 -5.69 C-23.56 -3.99, -27.92 -2.29, -35.95 0.86 M-19.21 -5.69 C-25.05 -3.41, -30.9 -1.12, -35.95 0.86" stroke="#000000" stroke-width="1" fill="none"></path></g><g transform="translate(477.2031623075992 423.2028045654297) rotate(0 -17.977386474609375 0.42828369140625)"><path d="M-18.92 6.6 C-23.35 5.11, -27.78 3.61, -35.95 0.86 M-18.92 6.6 C-24.86 4.6, -30.81 2.59, -35.95 0.86" stroke="#000000" stroke-width="1" fill="none"></path></g></g><mask></mask><g stroke-linecap="round" transform="translate(184.5163947294742 405.8890838623047) rotate(0 89.03222687077971 17.42822265625)"><path d="M0 0 C50.23 0, 100.46 0, 178.06 0 M0 0 C35.9 0, 71.81 0, 178.06 0 M178.06 0 C178.06 7.19, 178.06 14.37, 178.06 34.86 M178.06 0 C178.06 9.02, 178.06 18.04, 178.06 34.86 M178.06 34.86 C127.58 34.86, 77.09 34.86, 0 34.86 M178.06 34.86 C120 34.86, 61.93 34.86, 0 34.86 M0 34.86 C0 22.2, 0 9.55, 0 0 M0 34.86 C0 21.58, 0 8.3, 0 0" stroke="#000000" stroke-width="1" fill="none"></path></g><g transform="translate(186.16082577101895 415.98217378334357) rotate(0 88 10)"><text x="0" y="16" font-family="Helvetica, Segoe UI Emoji" font-size="17.504805141839213px" fill="#000000" text-anchor="start" style="white-space: pre;" direction="ltr">PRIO_QUEUE_ADDR</text></g><g stroke-linecap="round"><g transform="translate(398.76865303025545 425.3284149169922) rotate(0 -17.758636474609375 -0.122314453125)"><path d="M0 0 C-13.96 -0.1, -27.93 -0.19, -35.52 -0.24 M0 0 C-11.6 -0.08, -23.21 -0.16, -35.52 -0.24" stroke="#000000" stroke-width="1" fill="none"></path></g><g transform="translate(398.76865303025545 425.3284149169922) rotate(0 -17.758636474609375 -0.122314453125)"><path d="M-18.79 -6.2 C-25.37 -3.86, -31.94 -1.52, -35.52 -0.24 M-18.79 -6.2 C-24.25 -4.26, -29.72 -2.31, -35.52 -0.24" stroke="#000000" stroke-width="1" fill="none"></path></g><g transform="translate(398.76865303025545 425.3284149169922) rotate(0 -17.758636474609375 -0.122314453125)"><path d="M-18.87 5.94 C-25.42 3.51, -31.96 1.08, -35.52 -0.24 M-18.87 5.94 C-24.31 3.92, -29.75 1.9, -35.52 -0.24" stroke="#000000" stroke-width="1" fill="none"></path></g></g><mask></mask><g transform="translate(343.4010077665836 388.5796356201172) rotate(0 40.5 9.5)"><text x="0" y="15" font-family="Helvetica, Segoe UI Emoji" font-size="16px" fill="#862e9c" text-anchor="start" style="white-space: pre;" direction="ltr">TaskWaker</text></g><g transform="translate(432.0166693876773 443.73143005371094) rotate(0 39.5 9.5)"><text x="0" y="15" font-family="Helvetica, Segoe UI Emoji" font-size="16px" fill="#862e9c" text-anchor="start" style="white-space: pre;" direction="ltr">WakerMap</text></g><g stroke-linecap="round" transform="translate(179.38925849900545 377.63047790527344) rotate(0 173.94163513183594 48.025054931640625)"><path d="M0 0 C81.59 0, 163.17 0, 347.88 0 M347.88 0 C347.88 19.41, 347.88 38.83, 347.88 96.05 M347.88 96.05 C273.82 96.05, 199.75 96.05, 0 96.05 M0 96.05 C0 75.58, 0 55.1, 0 0" stroke="#000000" stroke-width="1.5" fill="none" stroke-dasharray="8 9"></path></g><g transform="translate(350.3308936308414 475.4977264404297) rotate(0 3 28)"><text x="0" y="14.666666666666668" font-family="Helvetica, Segoe UI Emoji" font-size="16px" fill="#000000" text-anchor="start" style="white-space: pre;" direction="ltr">.</text><text x="0" y="33.333333333333336" font-family="Helvetica, Segoe UI Emoji" font-size="16px" fill="#000000" text-anchor="start" style="white-space: pre;" direction="ltr">.</text><text x="0" y="52" font-family="Helvetica, Segoe UI Emoji" font-size="16px" fill="#000000" text-anchor="start" style="white-space: pre;" direction="ltr">.</text></g><g stroke-linecap="round" transform="translate(325.40463935838045 307.3815612792969) rotate(0 56.5 24.5)"><path d="M113 24.5 C113 25.66, 112.81 26.84, 112.42 27.99 C112.04 29.14, 111.47 30.29, 110.71 31.4 C109.96 32.52, 109.01 33.62, 107.89 34.68 C106.78 35.73, 105.48 36.77, 104.03 37.75 C102.58 38.72, 100.96 39.67, 99.2 40.54 C97.44 41.42, 95.53 42.25, 93.5 43.02 C91.47 43.78, 89.3 44.48, 87.05 45.11 C84.79 45.74, 82.41 46.3, 79.97 46.79 C77.53 47.27, 74.99 47.68, 72.42 48.01 C69.85 48.34, 67.19 48.59, 64.54 48.75 C61.89 48.92, 59.18 49, 56.5 49 C53.82 49, 51.11 48.92, 48.46 48.75 C45.81 48.59, 43.15 48.34, 40.58 48.01 C38.01 47.68, 35.47 47.27, 33.03 46.79 C30.59 46.3, 28.21 45.74, 25.95 45.11 C23.7 44.48, 21.53 43.78, 19.5 43.02 C17.47 42.25, 15.56 41.42, 13.8 40.54 C12.04 39.67, 10.42 38.72, 8.97 37.75 C7.52 36.77, 6.22 35.73, 5.11 34.68 C3.99 33.62, 3.04 32.52, 2.29 31.4 C1.53 30.29, 0.96 29.14, 0.58 27.99 C0.19 26.84, 0 25.66, 0 24.5 C0 23.34, 0.19 22.16, 0.58 21.01 C0.96 19.86, 1.53 18.71, 2.29 17.6 C3.04 16.48, 3.99 15.38, 5.11 14.32 C6.22 13.27, 7.52 12.23, 8.97 11.25 C10.42 10.28, 12.04 9.33, 13.8 8.46 C15.56 7.58, 17.47 6.75, 19.5 5.98 C21.53 5.22, 23.7 4.52, 25.95 3.89 C28.21 3.26, 30.59 2.7, 33.03 2.21 C35.47 1.73, 38.01 1.32, 40.58 0.99 C43.15 0.66, 45.81 0.41, 48.46 0.25 C51.11 0.08, 53.82 0, 56.5 0 C59.18 0, 61.89 0.08, 64.54 0.25 C67.19 0.41, 69.85 0.66, 72.42 0.99 C74.99 1.32, 77.53 1.73, 79.97 2.21 C82.41 2.7, 84.79 3.26, 87.05 3.89 C89.3 4.52, 91.47 5.22, 93.5 5.98 C95.53 6.75, 97.44 7.58, 99.2 8.46 C100.96 9.33, 102.58 10.28, 104.03 11.25 C105.48 12.23, 106.78 13.27, 107.89 14.32 C109.01 15.38, 109.96 16.48, 110.71 17.6 C111.47 18.71, 112.04 19.86, 112.42 21.01 C112.81 22.16, 112.9 23.92, 113 24.5 C113.1 25.08, 113.1 23.92, 113 24.5" stroke="none" stroke-width="0" fill="#15aabf"></path><path d="M113 24.5 C113 25.66, 112.81 26.84, 112.42 27.99 C112.04 29.14, 111.47 30.29, 110.71 31.4 C109.96 32.52, 109.01 33.62, 107.89 34.68 C106.78 35.73, 105.48 36.77, 104.03 37.75 C102.58 38.72, 100.96 39.67, 99.2 40.54 C97.44 41.42, 95.53 42.25, 93.5 43.02 C91.47 43.78, 89.3 44.48, 87.05 45.11 C84.79 45.74, 82.41 46.3, 79.97 46.79 C77.53 47.27, 74.99 47.68, 72.42 48.01 C69.85 48.34, 67.19 48.59, 64.54 48.75 C61.89 48.92, 59.18 49, 56.5 49 C53.82 49, 51.11 48.92, 48.46 48.75 C45.81 48.59, 43.15 48.34, 40.58 48.01 C38.01 47.68, 35.47 47.27, 33.03 46.79 C30.59 46.3, 28.21 45.74, 25.95 45.11 C23.7 44.48, 21.53 43.78, 19.5 43.02 C17.47 42.25, 15.56 41.42, 13.8 40.54 C12.04 39.67, 10.42 38.72, 8.97 37.75 C7.52 36.77, 6.22 35.73, 5.11 34.68 C3.99 33.62, 3.04 32.52, 2.29 31.4 C1.53 30.29, 0.96 29.14, 0.58 27.99 C0.19 26.84, 0 25.66, 0 24.5 C0 23.34, 0.19 22.16, 0.58 21.01 C0.96 19.86, 1.53 18.71, 2.29 17.6 C3.04 16.48, 3.99 15.38, 5.11 14.32 C6.22 13.27, 7.52 12.23, 8.97 11.25 C10.42 10.28, 12.04 9.33, 13.8 8.46 C15.56 7.58, 17.47 6.75, 19.5 5.98 C21.53 5.22, 23.7 4.52, 25.95 3.89 C28.21 3.26, 30.59 2.7, 33.03 2.21 C35.47 1.73, 38.01 1.32, 40.58 0.99 C43.15 0.66, 45.81 0.41, 48.46 0.25 C51.11 0.08, 53.82 0, 56.5 0 C59.18 0, 61.89 0.08, 64.54 0.25 C67.19 0.41, 69.85 0.66, 72.42 0.99 C74.99 1.32, 77.53 1.73, 79.97 2.21 C82.41 2.7, 84.79 3.26, 87.05 3.89 C89.3 4.52, 91.47 5.22, 93.5 5.98 C95.53 6.75, 97.44 7.58, 99.2 8.46 C100.96 9.33, 102.58 10.28, 104.03 11.25 C105.48 12.23, 106.78 13.27, 107.89 14.32 C109.01 15.38, 109.96 16.48, 110.71 17.6 C111.47 18.71, 112.04 19.86, 112.42 21.01 C112.81 22.16, 112.9 23.92, 113 24.5 C113.1 25.08, 113.1 23.92, 113 24.5" stroke="#000000" stroke-width="1" fill="none"></path></g><g transform="translate(354.40463935838045 322.3815612792969) rotate(0 27.5 9.5)"><text x="27.5" y="15" font-family="Helvetica, Segoe UI Emoji" font-size="16px" fill="#000000" text-anchor="middle" style="white-space: pre;" direction="ltr">Waiting</text></g><g stroke-linecap="round"><g transform="translate(582.4613105009586 159.58201599121094) rotate(0 7.282684326171875 93.8118896484375)"><path d="M0 0 C6.78 -0.15, 13.56 -0.31, 26.56 -0.61 M0 0 C8.55 -0.2, 17.09 -0.39, 26.56 -0.61 M26.56 -0.61 C26.38 50.69, 26.2 101.99, 25.9 188.1 M26.56 -0.61 C26.38 51.03, 26.2 102.67, 25.9 188.1 M25.9 188.1 C11.68 188.15, -2.55 188.2, -11.99 188.23 M25.9 188.1 C12.29 188.15, -1.33 188.19, -11.99 188.23" stroke="#000000" stroke-width="1" fill="none"></path></g><g transform="translate(582.4613105009586 159.58201599121094) rotate(0 7.282684326171875 93.8118896484375)"><path d="M-11.99 188.23 L1.58 181.85 L1.62 194.52 L-11.99 188.23" stroke="none" stroke-width="0" fill="#000000" fill-rule="evenodd"></path><path d="M-11.99 188.23 C-8.53 186.6, -5.06 184.97, 1.58 181.85 M-11.99 188.23 C-7.62 186.18, -3.26 184.12, 1.58 181.85 M1.58 181.85 C1.59 185.29, 1.6 188.74, 1.62 194.52 M1.58 181.85 C1.59 185.31, 1.6 188.78, 1.62 194.52 M1.62 194.52 C-3.49 192.16, -8.6 189.8, -11.99 188.23 M1.62 194.52 C-3.27 192.26, -8.16 190, -11.99 188.23 M-11.99 188.23 C-11.99 188.23, -11.99 188.23, -11.99 188.23 M-11.99 188.23 C-11.99 188.23, -11.99 188.23, -11.99 188.23" stroke="#000000" stroke-width="1" fill="none"></path></g></g><mask></mask><g transform="translate(542.2210761259586 246.18614196777344) rotate(0 71.5 9.5)"><text x="71.5" y="15" font-family="Helvetica, Segoe UI Emoji" font-size="16px" fill="#000000" text-anchor="middle" style="white-space: pre;" direction="ltr">yield and wait event</text></g><g stroke-linecap="round"><g transform="translate(148.26142036423983 428.59446716308594) rotate(0 -24.808563232421875 -137.03927612304688)"><path d="M0 0 C-13.28 -0.16, -26.56 -0.33, -48.32 -0.6 M0 0 C-15.68 -0.19, -31.37 -0.39, -48.32 -0.6 M-48.32 -0.6 C-48.8 -103.02, -49.29 -205.43, -49.62 -274.08 M-48.32 -0.6 C-48.65 -71.04, -48.99 -141.49, -49.62 -274.08 M-49.62 -274.08 C-41.46 -273.97, -33.31 -273.86, -17.51 -273.64 M-49.62 -274.08 C-41.86 -273.97, -34.1 -273.87, -17.51 -273.64" stroke="#000000" stroke-width="1" fill="none"></path></g><g transform="translate(148.26142036423983 428.59446716308594) rotate(0 -24.808563232421875 -137.03927612304688)"><path d="M-17.51 -273.64 L-31.19 -267.49 L-31.02 -280.17 L-17.51 -273.64" stroke="none" stroke-width="0" fill="#000000" fill-rule="evenodd"></path><path d="M-17.51 -273.64 C-21.27 -271.95, -25.03 -270.26, -31.19 -267.49 M-17.51 -273.64 C-21.95 -271.65, -26.39 -269.65, -31.19 -267.49 M-31.19 -267.49 C-31.13 -272.24, -31.06 -276.98, -31.02 -280.17 M-31.19 -267.49 C-31.15 -270.75, -31.1 -274.02, -31.02 -280.17 M-31.02 -280.17 C-27.59 -278.51, -24.16 -276.85, -17.51 -273.64 M-31.02 -280.17 C-27.75 -278.59, -24.49 -277.01, -17.51 -273.64 M-17.51 -273.64 C-17.51 -273.64, -17.51 -273.64, -17.51 -273.64 M-17.51 -273.64 C-17.51 -273.64, -17.51 -273.64, -17.51 -273.64" stroke="#000000" stroke-width="1" fill="none"></path></g></g><mask></mask><g transform="translate(60.22495185838045 257.89402770996094) rotate(0 31 9.5)"><text x="31" y="15" font-family="Helvetica, Segoe UI Emoji" font-size="16px" fill="#000000" text-anchor="middle" style="white-space: pre;" direction="ltr">wake up</text></g><g stroke-linecap="round"><g transform="translate(184.49643623338045 419.7239227294922) rotate(0 -10.205184936523438 -135.22567749023438)"><path d="M0 0 C-5.95 0.04, -11.9 0.09, -20.51 0.15 M-20.51 0.15 C-20.94 -97.44, -21.37 -195.02, -21.71 -270.6 M-21.71 -270.6 C-13.13 -270.29, -4.55 -269.97, 1.29 -269.76" stroke="#000000" stroke-width="1.5" fill="none" stroke-dasharray="8 9"></path></g><g transform="translate(184.49643623338045 419.7239227294922) rotate(0 -10.205184936523438 -135.22567749023438)"><path d="M-9.66 -266.22 C-6.48 -267.25, -3.3 -268.27, 1.29 -269.76" stroke="#000000" stroke-width="1.5" fill="none"></path></g><g transform="translate(184.49643623338045 419.7239227294922) rotate(0 -10.205184936523438 -135.22567749023438)"><path d="M-9.37 -274.09 C-6.28 -272.83, -3.18 -271.58, 1.29 -269.76" stroke="#000000" stroke-width="1.5" fill="none"></path></g></g><mask></mask><g transform="translate(175.52683174119295 238.03648376464844) rotate(0 104.5 18.5)"><text x="0" y="15.5" font-family="Helvetica, Segoe UI Emoji" font-size="16px" fill="#000000" text-anchor="start" style="white-space: pre;" direction="ltr">insert the CID into the queue </text><text x="0" y="34" font-family="Helvetica, Segoe UI Emoji" font-size="16px" fill="#000000" text-anchor="start" style="white-space: pre;" direction="ltr">to complete the wake-up</text></g><g stroke-linecap="round"><g transform="translate(399.7061835478336 157.9292449951172) rotate(0 -44.077667236328125 -1.08447265625)"><path d="M0 0 C-32.65 -0.8, -65.3 -1.61, -88.16 -2.17 M0 0 C-33.44 -0.82, -66.89 -1.65, -88.16 -2.17" stroke="#000000" stroke-width="1" fill="none"></path></g><g transform="translate(399.7061835478336 157.9292449951172) rotate(0 -44.077667236328125 -1.08447265625)"><path d="M-88.16 -2.17 L-74.41 -8.17 L-74.72 4.5 L-88.16 -2.17" stroke="none" stroke-width="0" fill="#000000" fill-rule="evenodd"></path><path d="M-88.16 -2.17 C-83.06 -4.39, -77.97 -6.62, -74.41 -8.17 M-88.16 -2.17 C-82.94 -4.45, -77.73 -6.72, -74.41 -8.17 M-74.41 -8.17 C-74.51 -4.14, -74.61 -0.12, -74.72 4.5 M-74.41 -8.17 C-74.48 -5.44, -74.54 -2.7, -74.72 4.5 M-74.72 4.5 C-78.14 2.81, -81.55 1.11, -88.16 -2.17 M-74.72 4.5 C-80.02 1.87, -85.32 -0.76, -88.16 -2.17 M-88.16 -2.17 C-88.16 -2.17, -88.16 -2.17, -88.16 -2.17 M-88.16 -2.17 C-88.16 -2.17, -88.16 -2.17, -88.16 -2.17" stroke="#000000" stroke-width="1" fill="none"></path></g></g><mask></mask><g transform="translate(312.3731757353337 163.83872985839844) rotate(0 46 15)"><text x="46" y="12" font-family="Helvetica, Segoe UI Emoji" font-size="13.285310444078979px" fill="#000000" text-anchor="middle" style="white-space: pre;" direction="ltr">yield and </text><text x="46" y="27" font-family="Helvetica, Segoe UI Emoji" font-size="13.285310444078979px" fill="#000000" text-anchor="middle" style="white-space: pre;" direction="ltr">wait for nothing</text></g><g stroke-linecap="round"><g transform="translate(701.2274848173648 424.07008361816406) rotate(0 -84.25152587890625 0.3338623046875)"><path d="M0 0 C-36.48 0.14, -72.95 0.29, -168.5 0.67" stroke="#000000" stroke-width="1.5" fill="none" stroke-dasharray="8 9"></path></g><g transform="translate(701.2274848173648 424.07008361816406) rotate(0 -84.25152587890625 0.3338623046875)"><path d="M-140.35 -9.7 C-146.45 -7.46, -152.54 -5.21, -168.5 0.67" stroke="#000000" stroke-width="1.5" fill="none"></path></g><g transform="translate(701.2274848173648 424.07008361816406) rotate(0 -84.25152587890625 0.3338623046875)"><path d="M-140.27 10.82 C-146.38 8.62, -152.49 6.42, -168.5 0.67" stroke="#000000" stroke-width="1.5" fill="none"></path></g></g><mask></mask><g transform="translate(576.2250434111148 391.7779083251953) rotate(0 59.5 9.5)"><text x="0" y="15" font-family="Helvetica, Segoe UI Emoji" font-size="16px" fill="#000000" text-anchor="start" style="white-space: pre;" direction="ltr">event completed</text></g></svg>